<?xml version="1.0" standalone="no"?>
<!DOCTYPE svg PUBLIC "-//W3C//DTD SVG 20010904//EN"
 "http://www.w3.org/TR/2001/REC-SVG-20010904/DTD/svg10.dtd">
<svg version="1.0" xmlns="http://www.w3.org/2000/svg"
 width="1896.000000pt" height="434.000000pt" viewBox="0 0 1896.000000 434.000000"
 preserveAspectRatio="xMidYMid meet">

<g transform="translate(0.000000,434.000000) scale(0.100000,-0.100000)"
fill="#ffffff" stroke="none">
<path d="M14185 4331 c-105 -4 -196 -10 -203 -15 -6 -4 -12 -13 -12 -21 0 -21
29 -26 60 -10 35 18 59 19 83 1 16 -13 16 -14 -7 -30 -28 -17 -62 -21 -70 -7
-3 5 -33 3 -68 -5 -35 -7 -105 -16 -157 -20 -57 -4 -101 -13 -111 -21 -10 -9
-50 -16 -105 -19 -168 -8 -544 -69 -582 -94 -15 -9 -12 -10 16 -6 29 5 32 4
21 -9 -14 -17 -77 -20 -82 -4 -2 7 -24 4 -63 -10 -33 -12 -68 -18 -78 -15 -10
3 -25 0 -33 -6 -8 -8 -30 -11 -54 -7 -23 3 -43 1 -46 -5 -4 -6 -40 -26 -80
-44 -52 -24 -87 -34 -123 -34 -55 0 -105 -15 -97 -29 8 -12 -36 -22 -49 -11
-6 5 -28 7 -48 3 -24 -4 -37 -2 -37 6 0 20 -21 12 -50 -19 -28 -30 -50 -39
-50 -20 0 6 -22 -2 -50 -16 -67 -35 -65 -50 8 -49 83 2 89 4 104 19 15 14 99
38 135 37 11 0 23 6 27 14 5 15 85 40 154 48 32 4 42 2 42 -9 0 -15 12 -17 49
-7 23 6 23 7 5 14 -18 7 -18 7 0 14 11 5 21 3 25 -4 12 -18 190 7 216 30 25
22 92 39 81 21 -5 -8 3 -12 23 -12 20 0 31 5 31 14 0 19 114 46 224 53 66 5
87 3 82 -5 -4 -7 -14 -12 -21 -12 -8 0 -12 -6 -9 -13 5 -14 -68 -38 -109 -36
l-22 1 23 6 c22 7 32 28 12 26 -5 -1 -23 -2 -40 -2 -16 -1 -29 -7 -27 -13 2
-12 -55 -37 -89 -38 -12 -1 -34 -11 -49 -22 -23 -19 -32 -20 -61 -11 -19 6
-34 6 -34 1 0 -5 -10 -9 -23 -9 -21 0 -99 -16 -291 -58 -44 -10 -81 -23 -84
-30 -5 -16 29 -15 124 3 43 8 80 13 82 10 15 -14 -318 -98 -366 -93 -26 3 -36
0 -39 -12 -4 -16 -73 -40 -116 -40 -13 0 -46 -11 -73 -25 -55 -28 -57 -29 -50
-16 9 14 -19 20 -61 14 -45 -7 -64 -19 -57 -38 6 -13 -5 -18 -64 -30 -21 -4
-38 -2 -48 6 -12 10 -22 7 -58 -18 -32 -23 -47 -28 -65 -22 -13 5 -20 5 -16 0
3 -5 -52 -28 -122 -52 -71 -23 -145 -50 -166 -61 -38 -19 -65 -17 -37 3 11 8
7 9 -15 6 -16 -3 -39 -9 -50 -12 -11 -4 7 10 40 30 62 38 115 83 115 97 0 13
-28 9 -37 -5 -5 -8 -19 -11 -38 -7 -25 4 -2 16 148 73 99 37 186 67 195 66 10
-1 53 15 97 36 44 21 99 40 123 43 23 2 45 9 49 15 4 6 -18 7 -63 2 -38 -5
-80 -9 -94 -10 -14 0 -36 -6 -50 -12 -78 -34 -133 -53 -141 -47 -13 7 -2 23
25 35 15 7 3 8 -42 4 -59 -4 -144 -31 -237 -74 -22 -10 -55 -24 -73 -31 -18
-7 -31 -18 -30 -26 2 -7 -1 -13 -7 -12 -5 0 -9 5 -7 10 2 6 -4 8 -13 4 -9 -3
-40 -13 -69 -21 -43 -13 -53 -19 -49 -33 5 -21 -45 -51 -129 -76 -32 -10 -58
-22 -58 -27 0 -13 14 -11 28 3 9 9 17 9 35 -1 17 -9 30 -9 51 -2 41 16 45 13
11 -9 -16 -11 -42 -20 -57 -20 -20 0 -32 -8 -43 -29 -8 -16 -24 -32 -35 -36
-24 -8 -25 -18 -4 -36 14 -11 11 -15 -23 -36 -26 -16 -47 -21 -65 -17 -17 3
-29 0 -35 -9 -14 -24 -59 -47 -84 -45 -17 2 -23 -2 -22 -12 3 -15 -46 -42
-101 -56 -14 -3 -26 -12 -26 -19 0 -13 -26 -26 -160 -76 -54 -21 -76 -25 -81
-17 -6 9 -17 8 -44 -5 -20 -9 -47 -17 -60 -17 -13 0 -28 -6 -32 -13 -4 -8 -21
-22 -36 -32 -22 -14 -31 -15 -40 -6 -9 9 -8 14 3 21 8 6 21 8 28 5 7 -3 10 0
7 5 -7 12 59 46 108 55 20 4 37 11 37 16 0 5 -12 4 -26 -1 -35 -14 -39 -13
-23 7 12 15 12 16 -6 9 -11 -5 -44 -10 -72 -11 -35 -2 -62 -10 -79 -24 -38
-30 -55 -26 -19 4 40 33 252 138 264 131 12 -8 241 108 316 160 26 19 11 18
-26 -2 -17 -8 -33 -13 -36 -11 -9 10 -100 -29 -233 -100 -75 -39 -155 -74
-180 -78 -25 -4 -53 -12 -63 -17 -10 -5 -21 -7 -24 -5 -2 3 16 17 42 32 25 15
44 29 42 31 -2 2 -30 -3 -63 -11 -80 -21 -210 -86 -259 -130 l-40 -36 30 5 30
6 -35 -20 c-39 -21 -54 -25 -45 -10 8 13 3 13 -32 -1 -26 -10 -27 -11 -10 -24
17 -12 11 -17 -62 -57 -45 -25 -79 -47 -76 -50 3 -3 -8 -11 -25 -18 -17 -7
-33 -10 -37 -7 -3 4 5 11 18 16 18 7 20 10 6 10 -10 1 -31 -6 -47 -14 -30 -16
-72 -12 -97 7 -9 7 -30 0 -68 -21 -62 -35 -69 -37 -61 -16 8 22 0 19 -50 -17
-24 -17 -47 -29 -50 -25 -4 3 -38 -10 -78 -30 -39 -20 -84 -38 -101 -40 -16
-2 -45 -18 -65 -37 -19 -19 -46 -37 -60 -41 -40 -12 -208 -94 -215 -105 -3 -5
-17 -10 -31 -10 -13 0 -50 -13 -82 -29 -58 -29 -85 -31 -75 -5 11 29 -26 24
-112 -16 -48 -22 -85 -43 -82 -46 3 -3 40 10 84 29 43 19 80 33 82 31 21 -20
-226 -171 -309 -189 -19 -4 -54 -23 -79 -41 -24 -19 -62 -39 -85 -45 -76 -20
-125 -40 -158 -64 -54 -39 -90 -57 -150 -76 -55 -16 -57 -16 -48 1 13 24 80
77 115 90 15 6 26 13 23 15 -8 9 -292 -131 -311 -153 -11 -11 -25 -18 -32 -16
-7 3 -16 0 -20 -5 -3 -6 -10 -9 -15 -6 -14 9 -73 -19 -95 -45 l-20 -23 20 10
c82 41 114 53 127 48 9 -4 18 0 21 8 3 8 29 20 58 27 30 7 60 19 67 27 7 7 21
13 30 12 15 0 15 -2 -2 -12 -10 -7 -39 -29 -63 -49 -24 -21 -47 -38 -51 -39
-4 0 -19 -2 -34 -3 -15 -1 -35 -9 -45 -18 -30 -26 -84 -50 -99 -44 -8 3 -13 2
-10 -3 3 -5 -9 -15 -26 -22 -24 -10 -33 -10 -36 -1 -5 17 -27 15 -42 -3 -7 -8
-21 -15 -31 -15 -11 0 -28 -9 -39 -20 -11 -11 -27 -20 -36 -20 -14 0 -15 2 -3
17 22 28 63 58 74 55 13 -5 115 50 115 62 0 4 -8 5 -17 1 -10 -4 -31 -12 -48
-18 -16 -5 -66 -25 -110 -43 -93 -40 -95 -40 -88 -15 9 37 -17 32 -34 -6 -10
-21 -18 -40 -19 -41 -5 -8 -64 -8 -64 0 0 14 -27 9 -40 -7 -13 -15 -50 -21
-50 -7 1 19 30 42 54 42 15 0 25 4 21 9 -3 5 0 13 7 17 8 5 6 10 -8 15 -18 7
-18 8 4 15 20 6 32 34 14 34 -17 0 -99 -44 -155 -84 -46 -32 -60 -38 -67 -27
-10 17 -39 7 -150 -55 -93 -53 -339 -139 -454 -159 -47 -8 -139 -33 -204 -55
-65 -22 -137 -40 -160 -40 -68 0 -144 -20 -149 -40 -4 -14 -10 -15 -42 -7 -30
8 -57 6 -132 -11 -72 -17 -126 -22 -230 -22 -75 0 -139 3 -142 6 -11 11 54 93
140 177 163 159 400 308 793 498 121 59 181 95 267 161 34 26 65 48 68 48 2 0
34 18 70 40 36 22 67 40 69 40 8 0 232 153 253 172 12 11 23 30 25 42 2 12 16
27 35 36 27 12 33 21 33 48 0 30 10 38 43 33 9 -1 9 3 -2 32 -8 21 -5 30 22
59 18 18 39 33 48 33 8 0 38 27 65 60 109 133 120 164 88 244 -16 39 -15 41
12 76 28 37 34 38 91 19 16 -6 16 -5 -2 9 -22 18 -80 23 -90 7 -4 -6 -15 -6
-31 0 -14 6 -37 10 -52 11 -22 0 -23 2 -9 8 17 6 17 8 3 20 -23 19 -20 34 5
28 17 -5 20 -2 16 15 -5 17 -2 19 19 14 20 -5 24 -3 22 11 -2 15 3 17 32 14
35 -3 35 -3 16 18 -12 13 -14 21 -7 21 8 0 4 10 -8 26 -22 28 -28 54 -12 54 6
0 13 -4 16 -10 9 -15 25 -12 25 5 0 9 -16 25 -35 36 -22 13 -35 29 -35 41 0
18 5 20 33 15 17 -4 43 -9 57 -13 22 -7 24 -6 11 9 -7 9 -30 21 -51 27 -20 5
-45 19 -55 30 -16 18 -17 26 -8 61 10 37 9 40 -5 25 -14 -14 -17 -14 -27 1 -7
10 -17 13 -25 8 -9 -6 -11 -25 -6 -71 4 -39 3 -65 -4 -69 -5 -3 -10 -2 -10 4
0 5 -15 11 -32 13 -28 2 -34 8 -38 33 -4 20 -8 26 -13 18 -11 -17 -22 -16 -43
4 -15 16 -17 16 -31 -3 -14 -19 -14 -18 -33 6 -11 14 -27 59 -35 100 -22 103
-20 98 -57 108 -24 6 -43 23 -70 63 -66 96 -138 144 -291 193 -125 41 -325 69
-420 59 -75 -8 -65 -27 21 -43 84 -16 131 -34 129 -52 -2 -7 -7 -13 -12 -13
-6 0 -9 4 -7 8 1 5 -105 7 -237 5 -131 -1 -237 0 -235 4 12 18 -50 17 -127 -1
-66 -17 -92 -19 -119 -11 -19 5 -54 10 -77 10 -38 0 -68 -5 -193 -30 -25 -5
-74 -12 -110 -15 -262 -21 -465 -48 -735 -100 -355 -67 -443 -85 -469 -94 -15
-6 -45 -11 -67 -11 -21 0 -62 -9 -91 -20 -29 -11 -156 -48 -283 -81 -238 -63
-446 -124 -765 -224 -304 -96 -391 -127 -419 -150 -14 -13 -46 -26 -71 -30
-43 -7 -248 -82 -355 -130 -27 -12 -75 -33 -105 -46 -104 -45 -435 -216 -520
-269 -47 -29 -135 -86 -195 -126 -61 -40 -146 -90 -190 -110 -89 -41 -155 -82
-155 -96 0 -10 101 43 255 132 50 29 113 65 140 80 76 42 379 196 388 197 5 0
31 17 57 37 66 50 105 68 158 72 28 2 57 13 78 29 18 14 39 23 46 20 8 -3 23
3 33 15 18 20 41 28 30 10 -4 -7 2 -7 17 -1 13 5 32 12 43 16 16 5 17 8 5 15
-11 7 -9 10 12 10 32 0 130 37 140 53 3 6 15 11 25 12 44 4 82 17 87 31 3 8
19 14 40 14 21 0 36 6 40 16 4 10 13 13 25 9 10 -3 39 3 62 14 136 61 269 112
279 106 6 -4 22 0 35 9 14 9 44 18 67 20 56 5 55 5 38 17 -13 9 -13 10 0 8 44
-4 81 2 74 13 -5 8 0 9 14 6 12 -4 25 -2 28 3 3 5 10 7 15 4 5 -4 9 -1 9 5 0
6 10 8 24 4 13 -3 27 -1 30 5 9 15 160 61 199 61 18 0 46 9 62 20 17 11 42 20
57 20 14 0 53 8 86 19 42 13 64 15 71 8 7 -7 12 -5 17 6 3 9 16 17 28 17 12 0
26 4 32 9 10 9 194 35 201 27 2 -2 -19 -11 -49 -19 -248 -69 -390 -112 -693
-211 -192 -62 -395 -130 -450 -150 -55 -21 -136 -50 -180 -66 -88 -31 -411
-164 -630 -259 -194 -84 -393 -186 -435 -221 -37 -32 -28 -30 60 13 30 15 62
27 70 27 9 0 25 7 37 15 13 9 24 11 28 6 3 -6 -5 -17 -17 -25 -168 -106 -573
-348 -654 -391 -144 -76 -181 -100 -255 -169 -49 -44 -56 -54 -31 -42 18 10
32 12 32 6 0 -15 58 16 100 54 38 34 298 181 306 173 3 -2 -10 -13 -28 -24
-18 -11 -81 -58 -140 -104 -58 -46 -168 -129 -242 -183 -75 -55 -142 -106
-148 -114 -7 -8 -44 -36 -83 -62 -93 -63 -115 -89 -122 -141 l-6 -43 58 51
c68 61 278 194 311 198 13 1 49 22 81 46 33 25 92 55 137 72 44 15 100 43 125
61 25 18 51 31 58 29 7 -3 24 7 38 21 14 14 29 26 33 26 4 0 24 11 45 25 69
48 170 96 180 86 5 -5 0 -12 -14 -16 -28 -8 -181 -109 -200 -131 -7 -8 -27
-21 -46 -29 -33 -14 -42 -28 -24 -40 5 -3 16 2 24 10 9 8 21 15 27 15 19 0 84
37 104 59 11 12 24 21 31 21 7 0 70 30 141 66 263 134 232 107 -90 -82 -171
-99 -251 -151 -243 -157 8 -6 6 -7 -5 -3 -20 6 -88 -30 -88 -46 0 -6 7 -8 15
-4 8 3 15 1 15 -4 0 -6 -3 -10 -7 -10 -5 0 -24 -14 -43 -31 l-35 -31 35 20
c19 11 96 56 170 99 294 173 332 194 461 251 74 33 155 69 181 82 26 12 51 19
56 16 5 -3 17 3 27 14 10 11 29 18 47 18 19 -1 36 6 44 16 7 10 19 16 26 14 7
-3 58 15 113 40 177 78 185 81 185 78 0 -4 -98 -70 -172 -115 -89 -53 -192
-105 -183 -92 12 20 -12 11 -61 -22 -63 -43 -139 -87 -185 -108 -20 -9 -40
-22 -44 -29 -9 -15 -12 -16 85 33 41 20 66 31 55 23 -11 -9 -29 -22 -40 -30
-74 -54 94 19 264 116 18 10 35 17 37 16 2 -2 -46 -34 -106 -72 -61 -37 -107
-73 -104 -78 4 -6 -1 -8 -12 -4 -26 8 -54 -10 -35 -23 9 -6 -8 -17 -58 -36
-64 -24 -164 -96 -151 -108 3 -3 31 8 63 24 40 19 57 23 53 14 -9 -24 90 19
279 120 50 26 146 67 215 91 69 24 169 59 223 78 54 20 95 31 92 26 -3 -6 -10
-10 -15 -10 -22 0 -210 -87 -254 -118 -26 -18 -67 -42 -91 -52 -24 -10 -46
-23 -49 -28 -12 -20 124 31 261 98 223 110 237 116 653 246 80 25 179 58 221
74 147 55 384 121 454 127 94 7 77 -8 -45 -42 -51 -15 -132 -46 -178 -71 -70
-37 -93 -44 -140 -44 -46 -1 -63 -6 -87 -26 -29 -24 -29 -25 -5 -19 144 31
232 54 385 101 337 105 613 174 693 174 24 0 74 5 113 11 38 6 74 9 80 7 6 -2
-47 -51 -117 -108 -71 -58 -168 -141 -217 -185 -49 -44 -124 -110 -166 -147
-42 -37 -149 -138 -238 -225 -123 -120 -167 -169 -182 -206 -11 -26 -18 -54
-14 -63 4 -10 -1 -20 -10 -26 -13 -7 -17 -24 -17 -74 0 -48 -4 -66 -15 -70 -8
-4 -15 -14 -15 -23 0 -9 -6 -25 -13 -36 -52 -78 -86 -212 -87 -344 l0 -93 -34
4 c-19 2 -33 0 -30 -4 3 -4 -1 -16 -8 -27 -12 -20 -12 -20 -35 1 -13 12 -23
33 -23 48 0 15 -10 35 -21 46 l-22 19 6 -90 c5 -92 20 -150 64 -242 17 -36 30
-53 43 -53 11 0 42 -30 77 -72 32 -39 78 -84 103 -98 33 -19 46 -34 50 -55 4
-23 16 -36 55 -56 28 -15 49 -32 47 -38 -1 -6 4 -11 11 -11 7 0 45 -35 83 -77
38 -43 88 -97 112 -120 71 -71 50 -73 -65 -4 -45 27 -94 51 -110 53 -19 2 -35
14 -52 41 -39 59 -57 47 -22 -15 64 -112 165 -193 283 -229 57 -18 76 -30 140
-93 76 -76 131 -111 258 -163 316 -130 826 -159 1380 -77 63 9 127 13 161 9
43 -5 99 1 230 26 96 17 194 31 218 31 25 -1 90 9 145 23 178 43 229 53 306
60 41 4 116 19 165 35 50 15 106 31 125 35 81 16 330 90 387 115 34 16 77 31
95 35 18 4 42 15 53 25 11 10 58 32 105 50 47 17 104 43 127 56 49 29 53 29
53 7 0 -14 3 -13 23 5 13 12 35 22 49 22 35 0 86 19 130 48 21 13 44 22 52 19
8 -3 38 9 65 28 28 19 52 35 55 35 2 0 33 17 67 38 83 49 147 74 152 59 3 -9
11 -8 31 1 15 6 35 12 45 12 18 0 91 49 75 51 -21 3 -50 -4 -61 -13 -9 -7 -13
-7 -13 1 0 19 80 53 112 47 41 -8 218 78 278 136 25 24 74 60 110 81 l65 38
-45 -7 c-27 -4 -50 -14 -58 -25 -7 -11 -17 -17 -22 -14 -11 7 -55 -13 -124
-58 -63 -41 -111 -54 -136 -38 -13 9 -13 14 -2 32 12 18 11 20 -5 17 -20 -4
-23 -21 -11 -55 6 -19 2 -25 -22 -38 -16 -8 -36 -15 -44 -15 -8 0 -21 -7 -30
-15 -29 -29 -330 -144 -343 -131 -3 3 2 8 11 12 9 3 16 10 16 15 0 5 -12 4
-26 -1 -32 -13 -34 -13 -34 3 1 6 15 22 33 34 48 33 220 117 322 158 131 53
192 82 267 127 37 22 72 37 77 33 6 -3 22 2 36 11 24 16 25 16 19 -1 -5 -13
-3 -16 7 -13 8 3 13 13 11 22 -2 9 5 20 15 24 25 10 137 85 141 95 2 4 17 7
32 7 18 0 33 7 39 19 10 17 82 44 123 46 23 1 68 44 62 60 -3 7 2 15 12 19 14
5 15 4 4 -9 -10 -12 -10 -15 1 -15 21 0 263 121 276 139 33 43 -1 55 -51 17
-32 -24 -90 -56 -102 -56 -9 0 25 52 45 68 14 12 13 13 -9 10 -16 -2 -30 -14
-39 -33 -30 -66 -66 -87 -301 -180 -80 -32 -162 -66 -183 -77 -73 -37 -46 -12
32 29 92 49 217 129 227 145 4 6 -17 -3 -47 -20 -93 -53 -113 -62 -140 -62
-15 0 -44 -6 -65 -13 -22 -7 -45 -12 -51 -12 -7 0 -12 -3 -10 -7 3 -12 -41
-39 -66 -40 -12 -1 -70 -23 -130 -49 l-107 -47 -6 24 c-3 13 -10 24 -16 24 -5
0 -1 11 9 25 25 35 174 119 184 104 5 -8 9 -7 15 3 12 21 196 117 212 111 23
-9 43 17 31 39 -6 11 -9 21 -7 22 26 15 77 33 82 29 12 -12 5 -23 -25 -39 -21
-11 -28 -19 -21 -26 14 -14 54 17 87 68 48 75 102 121 229 193 119 67 156 82
156 63 0 -19 -61 -102 -75 -102 -9 0 -26 -5 -37 -11 -17 -9 -18 -13 -7 -20 18
-11 51 -1 66 21 7 10 27 23 45 30 18 8 60 31 94 52 59 37 118 50 126 28 2 -5
32 5 68 23 l65 32 -33 5 -33 5 83 92 c61 67 88 90 101 86 12 -3 24 3 33 16 9
12 34 30 57 41 23 11 52 27 65 36 21 15 22 15 22 -2 0 -11 -14 -32 -32 -47
-27 -23 -28 -25 -6 -12 15 9 32 14 38 10 5 -3 20 1 32 9 22 16 58 22 58 10 0
-13 -22 -44 -31 -44 -6 0 -7 4 -4 10 3 6 -1 7 -10 4 -16 -7 -40 -43 -32 -50 2
-2 21 3 41 11 37 16 61 52 46 69 -5 5 -6 15 -3 23 5 12 1 12 -31 -1 -34 -14
-36 -14 -36 3 0 10 9 26 20 36 11 10 18 20 15 23 -5 5 42 32 54 32 3 0 -3 -7
-13 -15 -37 -28 -7 -28 46 0 73 38 134 81 141 100 9 23 -11 18 -37 -10 -21
-22 -24 -23 -50 -10 -30 16 -46 12 -46 -11 0 -15 -46 -41 -56 -32 -23 24 126
119 152 97 10 -8 25 -2 63 25 40 29 221 104 221 92 0 -2 -19 -16 -42 -32 -62
-42 -98 -75 -98 -91 0 -15 16 -17 25 -3 7 12 52 13 59 2 3 -5 -15 -29 -40 -53
-25 -24 -50 -52 -55 -62 -9 -16 -6 -17 31 -11 33 5 40 4 40 -10 0 -9 6 -16 13
-16 12 0 77 56 77 66 0 3 -15 3 -32 -1 l-33 -6 28 16 c34 20 35 29 0 20 -25
-6 -24 -3 18 42 24 26 52 48 62 48 10 0 23 12 30 25 14 29 70 60 109 60 17 0
34 10 48 28 12 15 34 29 48 32 34 6 43 40 11 40 -22 0 -146 -57 -155 -72 -3
-4 -13 -8 -22 -7 -11 0 -12 3 -4 6 6 2 12 13 12 24 0 31 115 97 263 149 72 26
98 26 81 -1 -3 -6 -18 -9 -33 -7 -22 3 -27 0 -27 -16 1 -13 -9 -22 -29 -29
-48 -15 -55 -25 -43 -52 10 -23 12 -24 45 -10 20 8 45 12 58 9 14 -3 24 0 28
9 8 20 97 53 106 38 5 -8 20 -2 47 20 54 42 54 42 10 37 -34 -4 -36 -3 -20 9
10 7 24 11 31 9 7 -3 13 -2 13 3 0 8 72 41 88 41 4 0 -10 -11 -32 -24 -35 -22
-37 -24 -16 -31 25 -8 70 28 70 56 0 17 20 28 140 82 19 9 37 12 40 7 4 -6 21
-5 43 1 47 13 59 6 47 -26 -11 -29 -9 -30 31 -9 38 19 50 11 16 -11 -14 -9
-27 -25 -30 -36 -5 -18 -2 -20 26 -14 39 8 117 45 195 91 66 40 148 67 282 94
52 10 133 35 180 55 50 22 109 39 142 42 62 6 105 33 52 33 -16 0 -45 -4 -64
-9 -38 -8 -85 3 -76 18 11 17 113 61 142 61 23 0 26 2 14 11 -11 8 -12 12 -2
16 6 2 10 9 7 13 -3 5 -21 1 -40 -10 -28 -16 -137 -50 -159 -50 -3 0 -6 5 -6
10 0 6 11 10 25 10 13 0 28 7 32 15 13 23 159 65 258 75 80 7 261 50 339 80
26 9 27 9 16 -5 -11 -13 -8 -13 29 0 43 15 85 10 59 -7 -7 -4 -33 -13 -56 -20
-24 -6 -46 -17 -49 -25 -4 -9 -14 -12 -28 -9 -13 3 -41 -1 -64 -9 -36 -12 -42
-12 -49 1 -8 14 -13 14 -46 0 -21 -9 -42 -14 -47 -11 -8 5 -187 -60 -199 -72
-6 -6 55 2 157 23 40 8 75 14 78 14 4 0 -8 -12 -25 -26 -17 -15 -33 -24 -37
-21 -3 4 -14 -4 -23 -16 -21 -25 -8 -40 24 -28 41 15 78 22 72 13 -3 -5 29 -1
72 9 52 12 79 14 83 7 5 -7 17 -7 40 0 19 6 54 7 78 4 l44 -7 -39 -27 c-21
-15 -52 -32 -69 -39 l-30 -12 35 -9 c34 -10 120 -6 170 7 14 3 -14 -10 -63
-30 -59 -24 -133 -43 -230 -60 -142 -24 -169 -32 -282 -85 -33 -16 -78 -31
-100 -35 -22 -4 -45 -14 -51 -21 -6 -8 -38 -19 -70 -24 -73 -13 -107 -27 -99
-40 4 -6 1 -17 -5 -25 -10 -12 -10 -15 1 -15 12 0 101 22 189 46 l25 7 -25
-21 c-31 -25 -20 -40 17 -23 17 8 29 9 31 3 2 -6 23 1 48 15 32 18 54 24 74
19 22 -4 28 -2 24 8 -6 16 10 23 96 41 39 8 66 10 68 4 5 -12 43 -11 62 1 12
8 12 10 -5 10 -14 1 -10 5 14 15 38 17 53 19 31 5 -25 -16 -7 -18 40 -5 131
38 158 45 197 51 35 5 43 3 52 -14 6 -11 11 -23 11 -25 0 -10 -100 -46 -160
-57 -89 -17 -190 -50 -190 -61 0 -6 4 -8 9 -5 5 3 11 -1 15 -9 6 -16 30 -11
57 11 20 18 134 54 169 54 15 0 30 3 34 7 8 8 19 10 103 17 35 3 63 2 63 -2 0
-7 -144 -65 -245 -99 l-50 -17 30 -12 c38 -17 56 -17 53 -2 -2 6 6 13 17 15
17 3 18 2 5 -7 -20 -15 85 -4 114 13 12 6 33 10 49 8 15 -1 42 6 60 17 19 13
57 22 97 25 36 3 106 13 155 21 50 9 105 16 123 16 17 0 32 4 32 8 0 14 235
24 580 25 286 2 321 0 380 -18 153 -46 217 -104 428 -395 146 -201 210 -272
337 -375 73 -59 219 -155 310 -204 44 -24 89 -49 100 -56 40 -27 312 -143 390
-168 44 -14 168 -51 275 -82 107 -32 215 -66 239 -77 26 -11 69 -19 110 -19
62 -1 145 -21 165 -39 5 -5 -14 -12 -43 -16 -28 -4 -51 -10 -51 -14 0 -8 92
-23 243 -40 58 -7 237 -10 440 -9 322 3 347 4 432 26 52 14 135 26 195 29 99
6 108 8 156 40 28 19 73 42 100 51 74 25 38 27 -83 3 -59 -11 -148 -23 -196
-27 -62 -4 -87 -10 -83 -18 2 -8 -13 -16 -42 -23 -49 -11 -76 -7 -65 11 4 7
-2 8 -18 2 -13 -4 -48 -10 -78 -12 -31 -3 -49 -8 -41 -13 7 -5 -1 -9 -24 -12
-29 -3 -36 -1 -36 14 0 9 8 22 18 27 15 8 144 36 277 61 22 4 182 44 357 88
174 45 319 82 322 82 3 0 6 4 6 9 0 4 -83 -11 -185 -34 -101 -23 -187 -40
-189 -38 -12 12 11 35 75 79 38 26 72 51 75 56 13 20 -5 16 -63 -14 -42 -21
-59 -36 -56 -46 4 -10 0 -13 -13 -10 -35 6 -29 47 12 89 l38 39 -35 -10 c-18
-6 -35 -10 -36 -10 -2 0 -2 -6 0 -12 1 -9 -14 -14 -46 -15 -27 -1 -71 -10 -98
-19 -27 -10 -52 -15 -55 -11 -9 9 -17 5 121 77 246 130 358 180 372 166 5 -5
-48 -31 -101 -50 -10 -4 -17 -8 -14 -11 2 -2 35 7 74 20 38 14 79 25 90 25 12
0 28 7 35 17 13 15 11 16 -23 9 -37 -7 -38 -6 -38 22 0 32 14 42 61 42 29 0
38 13 19 25 -8 5 -7 11 1 21 10 12 8 13 -7 8 -19 -7 -19 -7 0 14 24 28 7 28
-44 2 -47 -24 -50 -29 -12 -23 19 3 23 2 13 -5 -8 -6 -10 -15 -6 -22 5 -8 3
-11 -6 -8 -8 3 -21 -1 -29 -8 -15 -13 -168 -49 -176 -41 -2 2 28 16 66 31 76
30 91 46 20 21 -45 -16 -71 -13 -29 4 61 23 112 51 87 46 -14 -3 -34 -8 -45
-11 -36 -13 2 13 81 55 43 23 86 47 95 52 9 5 43 20 76 33 59 23 60 25 63 65
2 23 -1 41 -5 41 -5 0 -71 -25 -147 -56 -76 -30 -140 -53 -143 -51 -6 7 201
114 265 138 21 8 32 18 32 31 0 18 -5 20 -31 14 -17 -3 -101 -37 -187 -75
-166 -73 -230 -96 -239 -88 -7 8 29 25 99 47 35 11 88 36 118 55 103 64 183
107 208 114 14 4 28 13 30 19 4 13 -19 6 -93 -28 -90 -41 -116 -51 -128 -47
-6 2 26 23 70 47 89 48 102 62 30 31 -25 -11 -47 -16 -49 -10 -2 5 -59 -18
-128 -51 -114 -55 -131 -60 -190 -59 -71 1 -69 2 70 34 78 18 263 98 203 88
-48 -8 -41 3 25 36 60 32 114 70 97 71 -5 0 -23 -9 -40 -20 -65 -45 -225 -113
-315 -136 -52 -13 -96 -22 -98 -19 -7 7 36 24 78 31 23 4 44 12 46 19 3 7 99
54 215 105 123 54 209 98 209 106 0 15 -61 -6 -206 -70 -80 -35 -184 -67 -214
-65 -8 0 -1 5 15 11 36 13 45 25 45 60 0 15 8 32 18 37 29 17 7 12 -68 -15
-40 -14 -74 -23 -76 -21 -6 6 59 47 73 47 20 0 88 33 76 37 -6 2 -45 -11 -85
-30 -85 -39 -142 -53 -136 -34 6 17 89 56 132 60 21 3 43 10 49 17 9 10 9 11
0 6 -7 -4 -13 -3 -13 3 0 5 9 13 21 16 48 16 213 98 203 102 -6 2 -60 -19
-120 -47 -149 -70 -379 -147 -389 -130 -3 5 5 16 17 24 36 26 17 19 -78 -28
-49 -24 -113 -51 -143 -60 -80 -24 -181 -21 -181 5 0 18 94 50 159 54 67 4
188 30 206 45 6 5 37 8 70 8 89 0 136 15 193 58 28 21 51 42 51 46 1 3 -15 2
-35 -4 -85 -23 -23 18 95 63 13 5 22 12 19 14 -3 3 -57 -15 -120 -39 -113 -44
-158 -49 -158 -20 0 21 -32 17 -180 -22 -287 -75 -328 -84 -413 -94 -49 -5
-159 -6 -245 -3 -142 5 -164 8 -230 34 -124 49 -322 213 -437 363 -16 22 -58
76 -93 120 -35 45 -85 113 -113 151 -130 184 -211 273 -349 384 -136 110 -158
124 -345 219 -142 73 -486 193 -557 196 -20 0 -35 4 -32 7 2 4 -11 9 -29 12
-17 3 -75 15 -127 26 -188 40 -422 70 -600 76 -69 2 -154 6 -190 8 -36 2 -151
1 -255 -2z m498 -38 c-7 -2 -19 -2 -25 0 -7 3 -2 5 12 5 14 0 19 -2 13 -5z
m-403 -13 c-8 -5 -24 -10 -35 -10 -17 0 -17 2 -5 10 8 5 24 10 35 10 17 0 17
-2 5 -10z m-80 -15 c-9 -8 -24 -12 -37 -9 -32 9 -18 24 20 24 27 0 30 -2 17
-15z m145 5 c-3 -5 -13 -10 -21 -10 -8 0 -14 5 -14 10 0 6 9 10 21 10 11 0 17
-4 14 -10z m578 3 c-7 -2 -19 -2 -25 0 -7 3 -2 5 12 5 14 0 19 -2 13 -5z
m-485 -10 c-10 -2 -26 -2 -35 0 -10 3 -2 5 17 5 19 0 27 -2 18 -5z m77 -3 c-3
-5 -15 -10 -26 -10 -10 0 -19 5 -19 10 0 6 12 10 26 10 14 0 23 -4 19 -10z
m205 -4 c0 -2 -7 -6 -15 -10 -8 -3 -15 -1 -15 4 0 6 7 10 15 10 8 0 15 -2 15
-4z m90 -6 c0 -5 -11 -10 -24 -10 -14 0 -28 5 -31 10 -4 6 7 10 24 10 17 0 31
-4 31 -10z m75 -10 c4 -6 -7 -10 -25 -10 -18 0 -29 4 -25 10 3 6 15 10 25 10
10 0 22 -4 25 -10z m-8845 -30 c12 -8 10 -10 -10 -9 -14 1 -36 5 -50 9 -23 7
-22 8 10 9 19 0 42 -4 50 -9z m9174 -10 c7 -7 -6 -10 -42 -10 -49 0 -62 7 -44
24 9 10 72 0 86 -14z m126 -20 c26 -16 5 -19 -40 -5 l-45 14 35 0 c19 0 42 -3
50 -9z m190 -35 l25 -14 -27 -1 c-16 0 -28 4 -28 9 0 5 -10 12 -22 14 -22 4
-21 4 2 5 14 1 36 -5 50 -13z m147 -43 c-24 -5 -67 6 -67 17 0 5 19 4 43 -2
26 -7 35 -13 24 -15z m-1832 -12 c-3 -5 -10 -10 -16 -10 -5 0 -9 5 -9 10 0 6
7 10 16 10 8 0 12 -4 9 -10z m-315 -28 c0 -18 -26 -32 -62 -32 -39 0 -49 18
-18 32 21 9 80 10 80 0z m2290 -2 c12 -8 11 -10 -7 -10 -12 0 -25 5 -28 10 -8
13 15 13 35 0z m-1763 -6 c-3 -3 -12 -4 -19 -1 -8 3 -5 6 6 6 11 1 17 -2 13
-5z m-902 -124 c-3 -5 -11 -10 -16 -10 -6 0 -7 5 -4 10 3 6 11 10 16 10 6 0 7
-4 4 -10z m-175 -34 c0 -2 -9 -6 -20 -9 -11 -3 -20 -1 -20 4 0 5 9 9 20 9 11
0 20 -2 20 -4z m-100 -16 c0 -9 -35 -20 -109 -35 -50 -11 -30 12 27 29 56 17
82 19 82 6z m-10 -130 c0 -5 -12 -10 -27 -9 l-28 1 25 8 c14 4 26 8 28 9 1 1
2 -3 2 -9z m560 0 c-20 -13 -40 -13 -40 0 0 6 12 10 28 10 21 0 24 -2 12 -10z
m-180 -20 c0 -5 -19 -9 -42 -9 l-43 2 35 7 c19 4 38 8 43 9 4 0 7 -3 7 -9z
m-1685 -10 c3 -5 1 -10 -4 -10 -6 0 -11 5 -11 10 0 6 2 10 4 10 3 0 8 -4 11
-10z m-100 -30 c-65 -24 -92 -24 -40 0 22 10 51 19 65 18 18 0 10 -5 -25 -18z
m1229 11 c7 -10 -17 -21 -42 -21 -15 1 -14 3 2 15 23 17 33 19 40 6z m-81 -15
c3 -8 -1 -17 -9 -20 -8 -3 -14 1 -14 8 0 11 -8 12 -37 5 -59 -13 -84 -8 -28 6
67 17 82 18 88 1z m467 -5 c9 -18 6 -20 -37 -26 -27 -3 -62 -10 -79 -15 -45
-15 -52 -12 -24 10 24 19 24 20 3 20 -13 0 -33 -15 -53 -40 -17 -22 -36 -40
-41 -40 -6 0 -7 5 -4 10 8 14 -10 12 -75 -5 -30 -8 -66 -15 -80 -15 -14 0 -31
-9 -38 -20 -10 -17 -9 -22 6 -31 12 -8 17 -20 14 -35 -2 -13 -8 -22 -12 -19
-10 6 -70 -27 -70 -38 0 -5 5 -5 10 -2 6 3 10 1 10 -5 0 -15 -47 -31 -86 -28
-31 2 -39 18 -9 18 9 0 12 6 9 15 -4 11 -13 13 -28 9 -18 -6 -19 -5 -7 10 7 9
24 16 36 16 31 0 37 31 10 47 -17 11 -18 12 -2 13 17 0 25 20 8 20 -15 0 -40
-41 -35 -55 3 -7 -12 -21 -35 -33 l-41 -22 -22 30 c-18 25 -24 28 -37 17 -21
-17 -68 -37 -87 -37 -9 0 -22 7 -31 15 -18 19 -39 14 -37 -9 2 -21 -29 -21
-50 0 -13 13 -16 13 -16 1 0 -16 -73 -52 -88 -43 -6 3 -18 3 -27 0 -13 -6 -14
-9 -3 -16 9 -7 8 -8 -6 -4 -24 8 -124 -29 -162 -59 l-29 -24 52 6 c28 3 60 3
69 -1 28 -11 2 -27 -47 -31 -68 -4 -69 -4 -69 -17 0 -12 -269 -95 -297 -92 -7
1 -11 -3 -10 -8 3 -15 -81 -58 -112 -58 l-26 1 24 13 c17 9 20 15 10 18 -23 8
60 45 172 76 57 16 131 43 164 60 l60 31 -52 1 c-35 0 -63 -7 -86 -20 -25 -15
-43 -19 -63 -14 -18 5 -25 3 -21 -4 8 -12 -44 -32 -85 -32 -17 0 -41 -9 -55
-20 -30 -23 -51 -27 -33 -5 20 24 -5 18 -38 -10 -17 -14 -41 -25 -54 -25 -21
0 -76 -13 -145 -35 -35 -11 -28 10 10 32 76 45 480 188 702 248 55 14 186 53
290 85 105 33 208 62 230 66 22 3 132 28 245 56 113 27 238 51 279 54 41 2 76
6 79 9 12 12 42 4 52 -14z m-630 -21 c-20 -13 -33 -13 -25 0 3 6 14 10 23 10
15 0 15 -2 2 -10z m-1095 -10 c-27 -12 -43 -12 -25 0 8 5 22 9 30 9 10 0 8 -3
-5 -9z m1875 0 c0 -5 -11 -10 -24 -10 -13 0 -39 -3 -57 -6 -19 -4 -31 -4 -28
0 5 5 60 19 102 25 4 1 7 -3 7 -9z m-853 -6 c-3 -3 -12 -4 -19 -1 -8 3 -5 6 6
6 11 1 17 -2 13 -5z m103 -3 c0 -5 -7 -11 -15 -15 -15 -5 -20 5 -8 17 9 10 23
9 23 -2z m997 3 c-3 -3 -12 -4 -19 -1 -8 3 -5 6 6 6 11 1 17 -2 13 -5z m-2232
-24 c3 -5 -1 -10 -9 -10 -9 0 -16 5 -16 10 0 6 4 10 9 10 6 0 13 -4 16 -10z
m1820 0 c-11 -5 -29 -9 -40 -9 l-20 0 20 9 c11 5 29 9 40 9 l20 0 -20 -9z
m190 0 c-3 -5 -11 -10 -16 -10 -6 0 -7 5 -4 10 3 6 11 10 16 10 6 0 7 -4 4
-10z m-1064 -55 c-18 -8 -36 -15 -40 -15 -13 1 45 29 59 29 8 0 0 -6 -19 -14z
m942 8 c-7 -2 -19 -2 -25 0 -7 3 -2 5 12 5 14 0 19 -2 13 -5z m-1847 -28 c-11
-8 -22 -12 -25 -9 -6 6 19 24 34 24 6 -1 1 -7 -9 -15z m802 -3 c2 -7 -6 -12
-17 -12 -21 0 -27 11 -14 24 9 9 26 2 31 -12z m712 -2 c-20 -13 -33 -13 -25 0
3 6 14 10 23 10 15 0 15 -2 2 -10z m-1700 -20 c0 -5 -8 -10 -17 -10 -15 0 -16
2 -3 10 19 12 20 12 20 0z m876 -15 c-21 -16 -32 -13 -21 4 3 6 14 11 23 11
15 -1 15 -2 -2 -15z m-110 -26 c-12 -7 -14 -14 -7 -18 6 -4 -2 -12 -19 -18
-17 -6 -30 -7 -30 -2 0 5 5 9 10 9 6 0 10 6 10 14 0 8 8 17 18 19 31 8 37 7
18 -4z m-137 -23 c-15 -13 -49 -25 -49 -17 0 5 8 12 18 14 24 6 36 8 31 3z
m582 -59 c-8 -8 -14 -7 -23 2 -11 10 -9 15 7 27 18 13 20 13 23 -2 2 -9 -1
-21 -7 -27z m97 34 c10 -6 7 -10 -13 -15 -28 -7 -49 0 -40 15 8 11 36 12 53 0z
m-773 -11 c-3 -5 -11 -10 -16 -10 -6 0 -7 5 -4 10 3 6 11 10 16 10 6 0 7 -4 4
-10z m1512 -16 c-3 -3 -12 -4 -19 -1 -8 3 -5 6 6 6 11 1 17 -2 13 -5z m-1652
-49 c-44 -25 -89 -45 -99 -45 -18 0 -18 1 -1 20 9 10 33 24 52 31 19 6 47 17
61 25 15 8 36 14 47 14 11 0 -15 -20 -60 -45z m734 21 c-2 -2 -15 -7 -29 -11
l-25 -8 25 21 c14 11 27 16 29 11 1 -6 1 -12 0 -13z m861 14 c0 -5 -9 -10 -21
-10 -11 0 -17 5 -14 10 3 6 13 10 21 10 8 0 14 -4 14 -10z m-665 -10 c-3 -5
-14 -10 -23 -10 -15 0 -15 2 -2 10 20 13 33 13 25 0z m-265 -18 c0 -13 -153
-63 -163 -53 -10 10 -5 13 83 46 39 15 80 19 80 7z m-846 -57 c-28 -26 -62
-41 -71 -31 -4 3 1 6 10 6 9 0 28 11 43 25 15 14 31 25 36 25 5 0 -3 -11 -18
-25z m2286 -9 c0 -2 -7 -6 -15 -10 -8 -3 -15 -1 -15 4 0 6 7 10 15 10 8 0 15
-2 15 -4z m-753 -22 c-3 -3 -12 -4 -19 -1 -8 3 -5 6 6 6 11 1 17 -2 13 -5z
m619 -9 c-22 -16 -44 -19 -73 -8 -16 6 -15 8 7 14 14 4 39 7 55 8 28 0 29 0
11 -14z m-217 -29 c-19 -17 -67 -33 -79 -26 -10 6 -4 11 21 18 36 11 65 15 58
8z m405 -12 c31 -12 -3 -34 -51 -34 -54 0 -55 22 -2 31 19 4 35 7 36 8 1 0 9
-2 17 -5z m-1854 -17 c0 -7 -17 -18 -37 -24 -141 -43 -173 -51 -173 -43 0 5
24 16 53 24 28 9 70 25 92 35 48 23 65 25 65 8z m1117 -3 c-3 -3 -12 -4 -19
-1 -8 3 -5 6 6 6 11 1 17 -2 13 -5z m623 -14 c11 -8 8 -10 -15 -8 -16 1 -39
-3 -50 -9 -52 -27 -127 -23 -92 5 24 20 132 28 157 12z m-473 -26 c-3 -3 -12
-4 -19 -1 -8 3 -5 6 6 6 11 1 17 -2 13 -5z m203 -23 c0 -14 -56 -30 -82 -23
-22 5 -22 6 7 18 35 15 75 18 75 5z m-1730 -20 c0 -11 -88 -46 -96 -38 -7 6
64 46 84 47 6 0 12 -4 12 -9z m450 -6 c0 -8 -142 -75 -158 -75 -7 0 -12 8 -10
17 2 12 26 24 78 39 87 25 90 26 90 19z m1167 -1 c-3 -3 -12 -4 -19 -1 -8 3
-5 6 6 6 11 1 17 -2 13 -5z m3729 -31 c-7 -7 -26 7 -26 19 0 6 6 6 15 -2 9 -7
13 -15 11 -17z m-5681 7 c-3 -5 -12 -10 -18 -10 -7 0 -6 4 3 10 19 12 23 12
15 0z m170 0 c-3 -5 -13 -10 -21 -10 -8 0 -12 5 -9 10 3 6 13 10 21 10 8 0 12
-4 9 -10z m20 -20 c-3 -5 -14 -10 -23 -10 -15 0 -15 2 -2 10 20 13 33 13 25 0z
m650 -10 c-79 -33 -134 -53 -230 -84 -61 -20 -123 -40 -139 -46 -38 -13 -47
-3 -18 20 35 29 326 118 387 118 l20 1 -20 -9z m-785 -15 c-14 -16 -40 -20
-40 -6 0 10 17 19 39 20 11 1 11 -2 1 -14z m396 -20 c-7 -19 8 -19 69 0 27 8
51 12 53 10 6 -6 -38 -22 -84 -31 -22 -4 -54 -13 -72 -21 -27 -11 -31 -17 -22
-28 9 -11 7 -16 -11 -25 -15 -8 -19 -9 -15 -1 12 19 -18 22 -56 7 -28 -12 -37
-13 -40 -4 -3 9 -16 8 -46 -6 -23 -11 -45 -17 -48 -14 -7 8 60 48 80 48 9 0
46 15 83 34 100 50 119 55 109 31z m1994 5 c-20 -13 -43 -13 -35 0 3 6 16 10
28 10 18 0 19 -2 7 -10z m-2834 -15 c-11 -8 -22 -12 -25 -9 -6 6 19 24 34 24
6 -1 1 -7 -9 -15z m412 -2 c12 2 25 6 28 10 10 10 44 9 44 -2 0 -13 -188 -103
-305 -146 -55 -21 -117 -46 -137 -56 -21 -11 -38 -16 -38 -12 0 12 33 43 45
43 7 0 40 18 74 41 33 22 65 37 71 34 6 -4 21 4 33 17 43 46 145 95 158 76 3
-4 15 -7 27 -5z m2287 -13 c-29 -14 -44 -16 -58 -8 -29 15 -3 28 53 27 l45 -1
-40 -18z m-2755 1 c0 -5 -18 -16 -39 -24 -26 -11 -38 -22 -37 -34 2 -26 -200
-125 -290 -142 -27 -5 -50 -14 -52 -20 -2 -6 -11 -11 -20 -12 -10 0 -12 -3 -5
-5 7 -3 21 0 32 6 29 15 26 5 -14 -51 l-34 -48 47 20 c57 25 67 34 27 25 -43
-9 88 61 146 78 25 8 58 12 72 9 21 -4 27 -1 27 11 0 10 15 23 35 32 44 18 55
17 30 -2 -20 -16 -20 -16 3 -9 50 15 17 -15 -55 -49 -43 -20 -112 -54 -153
-76 -51 -27 -86 -39 -109 -38 -26 2 -39 -4 -58 -27 -40 -46 -12 -42 98 12 61
31 99 45 99 37 0 -13 -113 -74 -136 -74 -7 0 -18 -8 -23 -19 -8 -15 -20 -18
-55 -16 -38 3 -47 0 -60 -21 -9 -13 -31 -31 -48 -40 -60 -31 -238 -102 -238
-95 0 4 25 25 55 45 29 21 59 44 66 52 10 13 8 13 -15 4 -15 -5 -32 -10 -38
-10 -19 0 97 89 124 95 15 4 31 11 35 17 4 7 0 9 -10 5 -26 -10 -20 9 9 32 36
28 8 28 -46 1 -27 -14 -38 -16 -34 -7 3 8 19 21 37 31 18 9 24 14 15 12 -10
-3 -18 -2 -18 3 0 5 8 11 18 14 9 4 44 22 77 42 81 48 180 95 200 95 9 0 24 9
33 20 10 11 78 44 152 74 145 59 150 61 150 47z m2648 -18 c-4 -21 -77 -48
-159 -58 -49 -6 -57 -5 -63 11 -11 29 20 44 95 44 37 0 71 5 74 10 3 6 17 10
31 10 19 0 25 -5 22 -17z m596 8 c3 -5 -17 -11 -44 -13 -42 -2 -48 -1 -33 10
20 14 69 16 77 3z m-149 -19 c-18 -15 -137 -34 -148 -23 -10 10 8 17 68 24 58
7 89 7 80 -1z m-4044 -26 c-6 -7 -30 -26 -54 -42 -23 -16 -58 -41 -77 -56 -53
-41 -214 -118 -221 -106 -4 6 -42 -6 -99 -31 -51 -23 -95 -39 -98 -36 -2 2 7
9 21 16 14 6 23 17 21 23 -4 10 34 33 126 74 24 11 24 11 -5 5 -44 -8 -21 11
49 42 46 20 56 22 45 9 -12 -15 -12 -16 9 -10 13 4 50 23 83 42 53 30 180 82
203 83 5 1 3 -5 -3 -13z m3856 -11 c-7 -16 -37 -21 -37 -5 0 10 32 31 39 25 2
-2 1 -11 -2 -20z m-119 -27 c4 -20 -32 -25 -58 -8 -13 9 -13 11 0 20 22 15 54
8 58 -12z m-2738 -6 c0 -5 -11 -14 -25 -20 -31 -14 -33 1 -2 16 28 14 27 13
27 4z m538 -4 c-3 -7 -15 -14 -29 -16 -23 -2 -23 -2 -5 13 24 18 39 20 34 3z
m2050 -6 c2 -7 -7 -12 -23 -12 -24 0 -26 2 -15 15 14 17 31 16 38 -3z m62 9
c0 -9 -23 -21 -41 -21 -4 0 -6 7 -3 15 7 16 44 21 44 6z m-876 -25 c-11 -8
-34 -18 -50 -21 -28 -6 -28 -6 6 14 41 24 76 29 44 7z m-2860 -62 c-56 -50
-126 -87 -148 -78 -11 4 -19 -3 -26 -20 -5 -14 -16 -26 -25 -26 -8 0 -23 -9
-32 -20 -12 -13 -24 -18 -40 -14 -13 4 -30 1 -38 -6 -9 -7 -18 -10 -22 -6 -14
14 35 48 165 115 75 39 150 79 166 90 51 34 50 11 0 -35z m1407 36 c-22 -19
-41 -26 -41 -15 0 5 51 34 60 34 3 0 -6 -9 -19 -19z m124 6 c-11 -7 -31 -16
-45 -20 l-25 -7 24 20 c13 12 33 21 44 21 21 0 21 0 2 -14z m-500 -6 c-3 -5
-11 -10 -16 -10 -6 0 -7 5 -4 10 3 6 11 10 16 10 6 0 7 -4 4 -10z m326 -30
c13 -8 25 -7 40 0 11 7 23 9 26 7 7 -8 -47 -34 -77 -38 -17 -3 -25 1 -26 11
-1 31 7 35 37 20z m2196 -36 c-3 -3 -12 -4 -19 -1 -8 3 -5 6 6 6 11 1 17 -2
13 -5z m4983 -4 c0 -5 -4 -10 -9 -10 -5 0 -18 -3 -28 -6 -16 -5 -16 -4 1 10
23 18 36 20 36 6z m-16200 -34 c0 -2 -7 -7 -16 -10 -8 -3 -12 -2 -9 4 6 10 25
14 25 6z m8980 -25 c-13 -11 -29 -17 -34 -14 -5 3 2 12 15 19 36 20 48 16 19
-5z m-125 -51 c-3 -5 -11 -10 -16 -10 -6 0 -7 5 -4 10 3 6 11 10 16 10 6 0 7
-4 4 -10z m7465 -20 c0 -5 -7 -10 -16 -10 -8 0 -12 5 -9 10 3 6 10 10 16 10 5
0 9 -4 9 -10z m-9440 -15 c-7 -9 -15 -13 -17 -11 -7 7 7 26 19 26 6 0 6 -6 -2
-15z m955 -34 c-22 -22 -149 -91 -167 -91 -6 0 -3 9 7 20 10 11 25 20 34 20 9
0 41 16 71 35 61 38 85 45 55 16z m7930 -12 c13 -5 -1 -8 -39 -6 -38 1 -61 7
-64 15 -3 9 7 11 40 6 23 -4 52 -11 63 -15z m-8978 -5 c-3 -3 -12 -4 -19 -1
-8 3 -5 6 6 6 11 1 17 -2 13 -5z m90 -18 c-12 -9 -14 -16 -8 -21 21 -13 10
-23 -51 -45 -35 -12 -84 -33 -110 -46 -58 -29 -68 -30 -40 -4 12 11 26 20 33
20 6 0 17 7 24 16 6 9 42 33 81 54 70 38 103 50 71 26z m-167 -21 c-25 -12
-47 -21 -50 -18 -9 9 46 43 70 42 21 0 18 -4 -20 -24z m405 15 c-3 -5 -11 -10
-16 -10 -6 0 -7 5 -4 10 3 6 11 10 16 10 6 0 7 -4 4 -10z m-8065 -60 c0 -5 -4
-10 -10 -10 -5 0 -10 5 -10 10 0 6 5 10 10 10 6 0 10 -4 10 -10z m7550 -5 c-7
-8 -18 -15 -24 -15 -6 0 -2 7 8 15 25 19 32 19 16 0z m994 -10 c-6 -14 -113
-60 -121 -51 -5 5 105 65 119 66 4 0 5 -7 2 -15z m8281 -35 c-28 -12 -67 -12
-60 0 3 6 23 10 43 9 30 0 33 -2 17 -9z m-8165 -5 c0 -2 -18 -14 -40 -25 -48
-25 -53 -18 -7 10 32 20 47 25 47 15z m8410 0 c0 -8 -82 -47 -87 -41 -3 3 14
15 38 26 49 22 49 22 49 15z m-9515 -24 c-3 -5 2 -11 12 -13 9 -2 -24 -22 -75
-46 -50 -24 -99 -42 -109 -39 -15 3 -13 6 10 15 15 7 52 23 81 37 29 14 58 25
64 25 7 0 11 3 11 8 -2 12 1 22 7 22 3 0 3 -4 -1 -9z m821 -8 c-10 -11 -37
-12 -30 -2 3 5 12 9 21 9 9 0 13 -3 9 -7z m-86 -42 c0 -17 -72 -69 -144 -104
-129 -62 -196 -73 -132 -22 20 16 39 22 63 20 25 -2 36 2 41 14 8 21 34 40
102 73 62 30 70 32 70 19z m8840 -5 c0 -2 -9 -6 -20 -9 -11 -3 -18 -1 -14 4 5
9 34 13 34 5z m-8651 -30 c-27 -26 -68 -50 -75 -43 -6 6 76 67 89 67 6 0 -1
-11 -14 -24z m451 15 c0 -16 -82 -77 -147 -110 -34 -17 -64 -31 -66 -31 -1 0
-3 9 -4 19 -2 26 26 49 110 92 73 37 107 46 107 30z m-9059 -49 c-46 -32 -121
-72 -121 -65 0 5 29 24 63 44 64 38 101 51 58 21z m17919 13 c0 -7 -120 -60
-155 -69 -49 -12 -23 3 66 39 46 18 85 34 87 34 1 1 2 -1 2 -4z m-10410 -9 c0
-3 -4 -8 -10 -11 -5 -3 -10 -1 -10 4 0 6 5 11 10 11 6 0 10 -2 10 -4z m999
-22 c-7 -9 -38 -28 -69 -41 -30 -14 -63 -30 -73 -35 -16 -8 -17 -7 -7 11 10
21 21 25 48 22 8 -1 34 14 60 33 45 36 67 41 41 10z m8231 -3 c-9 -5 -40 -6
-70 -1 l-55 8 70 0 c45 1 65 -2 55 -7z m-9395 -74 c-38 -25 -48 -28 -56 -16
-15 23 -11 27 39 42 66 19 72 10 17 -26z m1180 23 c-3 -5 -11 -10 -16 -10 -6
0 -7 5 -4 10 3 6 11 10 16 10 6 0 7 -4 4 -10z m6093 -8 c6 -18 -15 -14 -22 4
-4 10 -1 14 6 12 6 -2 14 -10 16 -16z m3072 3 c0 -2 -13 -11 -30 -20 -16 -9
-30 -12 -30 -7 0 5 10 14 23 20 25 12 37 14 37 7z m-15270 -36 c-7 -11 -14
-18 -17 -15 -8 8 5 36 17 36 7 0 7 -6 0 -21z m6040 12 c0 -11 -61 -43 -68 -37
-2 3 11 14 29 25 39 24 39 24 39 12z m-370 -7 c0 -8 -67 -34 -87 -34 -12 1 -6
8 17 20 34 18 70 26 70 14z m185 -14 c-10 -11 -25 -20 -33 -20 -9 0 -6 7 9 20
31 25 47 26 24 0z m6388 3 c-7 -2 -21 -2 -30 0 -10 3 -4 5 12 5 17 0 24 -2 18
-5z m-6293 -38 c0 -2 -22 -16 -50 -30 -27 -14 -50 -22 -50 -17 0 4 19 18 43
30 42 22 57 26 57 17z m60 -5 c-8 -5 -19 -10 -25 -10 -5 0 -3 5 5 10 8 5 20
10 25 10 6 0 3 -5 -5 -10z m6285 0 c-3 -5 -13 -10 -21 -10 -8 0 -12 5 -9 10 3
6 13 10 21 10 8 0 12 -4 9 -10z m-12335 -12 c0 -14 -40 -58 -52 -58 -14 0 -9
16 13 44 22 28 39 34 39 14z m5760 4 c0 -12 -73 -62 -155 -107 -82 -45 -140
-84 -176 -118 -25 -24 -100 -67 -116 -67 -4 0 15 13 42 29 35 20 51 36 52 51
2 27 -11 17 108 80 55 29 112 61 127 72 14 10 30 18 35 18 4 0 22 11 38 25 31
25 45 31 45 17z m54 -7 c-10 -8 -26 -14 -34 -14 -11 0 -10 3 4 14 11 8 27 15
35 15 11 0 10 -4 -5 -15z m6592 -33 c16 -10 16 -11 2 -12 -9 0 -18 -5 -20 -11
-2 -5 -14 1 -27 15 l-23 24 24 -2 c13 -2 33 -8 44 -14z m-6436 3 c0 -8 -61
-37 -67 -32 -3 3 8 12 24 21 29 16 43 19 43 11z m120 -24 c0 -5 -18 -17 -39
-27 -22 -9 -42 -25 -44 -36 -3 -10 -11 -18 -17 -18 -9 0 -9 4 1 17 13 15 12
15 -9 4 -13 -7 -28 -11 -34 -9 -6 2 20 20 58 40 77 40 84 42 84 29z m6400 -37
c0 -29 -20 -31 -44 -5 -23 25 -14 40 19 33 18 -3 25 -11 25 -28z m2574 30 c22
-9 10 -24 -20 -24 -25 0 -33 15 -11 23 6 3 13 6 14 6 1 1 8 -2 17 -5z m-15134
-24 c0 -5 -5 -10 -11 -10 -5 0 -7 5 -4 10 3 6 8 10 11 10 2 0 4 -4 4 -10z
m4646 -8 c-3 -5 -28 -22 -55 -40 -46 -28 -51 -29 -51 -12 0 12 5 17 14 14 8
-3 16 3 19 15 3 12 15 21 33 24 16 2 33 5 37 6 5 0 6 -3 3 -7z m10734 -7 c0
-6 -66 -34 -99 -42 -37 -8 -17 9 32 29 43 17 67 22 67 13z m-2635 -74 c49 -26
123 -60 163 -76 63 -25 91 -45 62 -45 -25 0 -6 -18 29 -28 50 -15 54 -15 47 3
-7 20 -3 19 89 -18 44 -18 80 -39 80 -46 0 -16 19 -27 59 -36 15 -3 26 -9 23
-12 -10 -9 -94 15 -161 46 -34 16 -91 38 -128 50 -38 13 -68 28 -68 36 0 8
-13 12 -39 11 -40 -1 -156 51 -275 122 -53 32 -57 36 -41 48 21 16 36 10 160
-55z m2409 58 c-5 -9 1 -10 22 -5 27 7 28 6 9 -7 -11 -9 -24 -13 -29 -10 -9 6
-86 -9 -189 -39 -38 -11 -71 -17 -74 -15 -8 9 39 30 132 58 100 30 140 35 129
18z m-9147 -25 c3 -11 -218 -137 -226 -128 -11 11 76 80 141 113 62 31 79 34
85 15z m8763 12 c0 -3 -4 -8 -10 -11 -5 -3 -10 -1 -10 4 0 6 5 11 10 11 6 0
10 -2 10 -4z m-8504 -31 c-26 -19 -42 -19 -26 0 7 8 20 15 29 15 13 -1 13 -3
-3 -15z m8424 1 c0 -2 -9 -6 -20 -9 -11 -3 -18 -1 -14 4 5 9 34 13 34 5z
m-8624 -21 c-11 -8 -22 -12 -25 -9 -6 6 19 24 34 24 6 -1 1 -7 -9 -15z m9078
6 c3 -5 -21 -20 -53 -35 -62 -27 -81 -32 -81 -17 0 15 26 31 71 45 56 18 57
18 63 7z m-634 -5 c0 -3 -4 -8 -10 -11 -5 -3 -10 -1 -10 4 0 6 5 11 10 11 6 0
10 -2 10 -4z m-97 -23 c-7 -2 -19 -2 -25 0 -7 3 -2 5 12 5 14 0 19 -2 13 -5z
m447 2 c0 -8 -52 -26 -58 -20 -3 2 6 9 19 14 28 11 39 13 39 6z m-11290 -14
c0 -5 -7 -11 -15 -15 -15 -5 -20 5 -8 17 9 10 23 9 23 -2z m11400 -1 c0 -10
-41 -22 -166 -49 -46 -10 -84 -14 -84 -10 0 9 4 10 130 35 47 9 92 20 100 25
19 11 20 11 20 -1z m-11476 -45 c-4 -9 0 -15 10 -15 9 0 16 -3 16 -7 0 -14
-44 -53 -61 -53 -9 0 -19 -4 -21 -9 -1 -5 -9 -3 -16 5 -10 11 -7 16 18 29 16
9 30 21 30 28 0 7 5 18 12 25 16 16 19 15 12 -3z m1846 -10 c-58 -31 -77 -32
-25 -1 22 13 47 24 55 25 8 0 -5 -11 -30 -24z m9650 15 c0 -5 -10 -10 -22 -9
-22 0 -22 1 -3 9 11 5 21 9 23 9 1 1 2 -3 2 -9z m-335 -30 c-3 -5 -12 -10 -18
-10 -7 0 -6 4 3 10 19 12 23 12 15 0z m-9325 -30 c-23 -18 -50 -26 -50 -15 0
6 53 34 65 34 6 0 -1 -8 -15 -19z m9190 11 c0 -5 -26 -13 -57 -16 -32 -4 -66
-9 -77 -12 -12 -3 -17 -1 -14 7 2 8 28 14 67 16 35 2 66 5 69 8 8 9 12 7 12
-3z m-10370 -9 c0 -10 -41 -35 -47 -28 -9 8 17 36 33 36 8 0 14 -3 14 -8z
m10160 -14 c0 -5 -34 -8 -76 -8 -41 0 -73 3 -71 8 7 9 147 9 147 0z m-9070
-28 c-20 -13 -33 -13 -25 0 3 6 14 10 23 10 15 0 15 -2 2 -10z m-1200 -5 c0
-2 -10 -9 -22 -15 -22 -11 -22 -10 -4 4 21 17 26 19 26 11z m-85 -25 c-3 -5
-11 -10 -16 -10 -6 0 -7 5 -4 10 3 6 11 10 16 10 6 0 7 -4 4 -10z m10849 -29
c7 -10 -16 -21 -44 -21 -10 0 -22 -5 -25 -10 -7 -11 20 -9 186 14 118 17 139
7 60 -27 -60 -26 -130 -41 -241 -53 -53 -6 -214 -30 -272 -41 -18 -3 -28 -1
-28 7 0 8 8 10 21 7 11 -3 36 1 56 9 19 8 52 16 73 17 30 1 41 7 49 24 6 13
37 35 73 53 67 32 83 35 92 21z m-10924 -5 c0 -3 -4 -8 -10 -11 -5 -3 -10 -1
-10 4 0 6 5 11 10 11 6 0 10 -2 10 -4z m70 0 c0 -3 -4 -8 -10 -11 -5 -3 -10
-1 -10 4 0 6 5 11 10 11 6 0 10 -2 10 -4z m9444 -5 c9 -14 -18 -31 -42 -24
-12 3 -22 9 -22 14 0 5 7 5 17 2 11 -4 14 -3 9 5 -5 8 0 12 13 12 11 0 22 -4
25 -9z m56 -21 c0 -5 -2 -10 -4 -10 -3 0 -8 5 -11 10 -3 6 -1 10 4 10 6 0 11
-4 11 -10z m1089 -50 c-28 -16 -211 -39 -197 -24 7 6 150 31 188 32 21 1 22 0
9 -8z m479 -6 c12 -4 22 -10 22 -13 0 -7 -92 -29 -192 -47 -65 -11 -42 11 40
39 82 28 94 30 130 21z m-9768 -18 c-8 -8 -42 -26 -75 -41 -71 -31 -62 -17 16
24 61 32 80 38 59 17z m50 -26 c0 -5 -5 -10 -11 -10 -5 0 -7 5 -4 10 3 6 8 10
11 10 2 0 4 -4 4 -10z m16 -42 c-9 -14 -13 -27 -10 -31 8 -8 -38 -30 -121 -58
-38 -13 -126 -52 -195 -87 -262 -135 -322 -164 -326 -159 -3 3 27 26 66 52 40
26 67 51 61 54 -13 9 4 24 91 78 81 51 182 88 205 74 13 -7 33 4 87 46 39 30
72 50 74 45 2 -7 16 -6 40 2 20 8 38 12 40 11 2 -2 -4 -14 -12 -27z m9454 22
c-8 -5 -24 -9 -35 -9 l-20 0 20 9 c11 5 27 9 35 9 13 1 13 0 0 -9z m-9380 -19
c-19 -11 -39 -17 -44 -14 -10 6 40 31 64 32 8 0 -1 -8 -20 -18z m-330 -26 c0
-7 -101 -57 -106 -52 -6 6 77 56 94 57 6 0 12 -2 12 -5z m9820 -55 c-20 -13
-33 -13 -25 0 3 6 14 10 23 10 15 0 15 -2 2 -10z m-985 -42 c89 -11 97 -13 67
-21 -45 -14 -176 5 -199 29 -17 17 -17 17 7 11 14 -4 70 -12 125 -19z m-9030
-18 c-16 -11 -34 -20 -40 -20 -16 1 38 40 55 40 8 0 2 -9 -15 -20z m9402 -6
c-3 -3 -12 -4 -19 -1 -8 3 -5 6 6 6 11 1 17 -2 13 -5z m-9487 -29 c0 -3 -55
-33 -122 -67 -150 -77 -142 -73 -133 -58 4 7 62 39 129 71 129 63 126 62 126
54z m290 -5 c0 -12 -80 -54 -88 -46 -3 3 -3 7 -1 9 11 7 84 47 87 47 1 0 2 -4
2 -10z m-5250 -71 c0 -6 -4 -7 -10 -4 -5 3 -10 11 -10 16 0 6 5 7 10 4 6 -3
10 -11 10 -16z m5138 0 c-20 -13 -6 -11 42 6 58 20 70 19 40 -6 -21 -17 -22
-19 -3 -10 60 30 38 3 -44 -52 -50 -34 -97 -54 -178 -78 -60 -17 -133 -42
-161 -55 -28 -13 -56 -24 -63 -24 -27 0 6 24 107 75 59 30 115 61 125 68 30
25 18 28 -24 7 -22 -12 -46 -19 -52 -17 -14 5 78 50 140 69 23 7 43 18 43 24
0 7 8 10 21 7 16 -4 17 -8 7 -14z m262 -9 c0 -6 -11 -16 -25 -22 -14 -6 -25
-17 -25 -23 0 -7 -9 -15 -21 -18 -16 -4 -19 -2 -15 10 5 13 4 14 -9 3 -8 -7
-13 -16 -10 -20 8 -13 -11 -21 -29 -14 -24 9 -5 28 54 53 27 12 52 26 55 31 8
13 25 13 25 0z m-525 -26 c-26 -20 -182 -94 -285 -135 -19 -8 -77 -35 -130
-60 -52 -26 -106 -50 -120 -54 -14 -4 -44 -17 -68 -28 -23 -11 -45 -17 -47
-15 -3 3 14 13 37 23 24 10 108 50 188 88 177 86 421 196 435 196 6 0 1 -6
-10 -15z m-4871 -29 c4 -19 11 -35 16 -35 6 0 10 -4 10 -10 0 -5 -6 -10 -14
-10 -15 0 -29 27 -21 40 3 5 1 11 -5 15 -12 8 -13 35 -1 35 5 0 12 -16 15 -35z
m5216 -44 c0 -10 -86 -61 -101 -61 -20 0 -7 21 28 45 38 25 73 33 73 16z
m-110 -26 c0 -32 -41 -59 -187 -121 -58 -26 -48 -14 22 26 47 26 72 46 75 62
4 15 15 24 30 26 14 2 29 8 35 13 14 14 25 11 25 -6z m-420 -114 c-53 -28 -75
-32 -53 -10 11 11 81 38 98 38 6 0 -15 -13 -45 -28z m342 -11 c-42 -26 -56
-26 -17 0 17 11 35 20 40 20 6 0 -5 -9 -23 -20z m-472 -21 c0 -7 10 -9 28 -5
15 4 -1 -9 -37 -28 -35 -20 -68 -33 -72 -30 -19 11 -7 24 30 35 26 8 38 16 34
25 -3 8 0 14 6 14 6 0 11 -5 11 -11z m284 -14 c-10 -8 -26 -14 -34 -14 -9 0
-4 6 10 14 33 19 49 19 24 0z m-689 -55 c-3 -5 -12 -10 -18 -10 -7 0 -6 4 3
10 19 12 23 12 15 0z m305 1 c0 -5 -8 -7 -19 -4 -10 3 -22 -1 -27 -8 -5 -9 -2
-10 12 -5 28 11 6 -7 -48 -38 -27 -15 -48 -22 -48 -16 0 5 5 10 10 10 6 0 10
5 10 10 0 6 -14 4 -31 -5 -17 -9 -33 -14 -36 -12 -2 3 26 21 64 40 66 35 113
46 113 28z m800 -15 c0 -3 -4 -8 -10 -11 -5 -3 -10 -1 -10 4 0 6 5 11 10 11 6
0 10 -2 10 -4z m-1224 -41 c-11 -8 -25 -15 -30 -15 -6 0 -2 7 8 15 11 8 25 15
30 15 6 0 2 -7 -8 -15z m-56 -19 c0 -3 -4 -8 -10 -11 -5 -3 -10 -1 -10 4 0 6
5 11 10 11 6 0 10 -2 10 -4z m315 -16 c-3 -5 -11 -10 -16 -10 -6 0 -7 5 -4 10
3 6 11 10 16 10 6 0 7 -4 4 -10z m470 -23 c-20 -32 -61 -51 -68 -32 -9 21 27
47 76 54 4 0 1 -10 -8 -22z m-925 -27 c-8 -5 -19 -10 -25 -10 -5 0 -3 5 5 10
8 5 20 10 25 10 6 0 3 -5 -5 -10z m785 -50 c-3 -5 -11 -10 -16 -10 -6 0 -7 5
-4 10 3 6 11 10 16 10 6 0 7 -4 4 -10z m-210 -40 c-33 -16 -81 -39 -107 -51
-26 -11 -55 -30 -64 -40 -21 -23 -15 -24 33 -4 45 19 52 14 16 -11 -61 -41
-76 -44 -100 -15 l-22 26 127 62 c70 34 138 61 152 61 18 0 9 -7 -35 -28z
m110 1 c-6 -5 -40 -26 -77 -46 -60 -33 -68 -35 -68 -18 0 13 17 27 53 45 50
26 112 38 92 19z m-85 -81 c0 -5 -5 -10 -11 -10 -5 0 -7 5 -4 10 3 6 8 10 11
10 2 0 4 -4 4 -10z m-365 -90 c-3 -5 -10 -10 -16 -10 -5 0 -9 5 -9 10 0 6 7
10 16 10 8 0 12 -4 9 -10z m-3538 -109 l16 -24 -44 7 c-59 8 -210 82 -203 99
8 21 209 -51 231 -82z m90 8 c52 -29 61 -39 35 -39 -23 0 -92 39 -92 53 0 12
18 8 57 -14z m239 -189 c18 0 18 -16 0 -23 -8 -3 -22 4 -33 15 -17 21 -17 21
0 15 10 -4 25 -7 33 -7z m99 -41 c27 -13 56 -19 71 -16 15 2 41 1 58 -3 17 -5
49 -11 71 -13 145 -18 280 -39 301 -47 14 -6 70 -10 124 -10 54 0 111 -5 127
-11 l28 -12 -25 -7 c-14 -5 -88 -8 -165 -9 -181 -1 -371 27 -410 59 -8 7 -15
7 -19 1 -10 -16 -89 1 -163 36 -69 32 -92 53 -58 53 8 0 35 -10 60 -21z m939
-107 c3 -5 -24 -10 -59 -10 -36 -1 -65 2 -65 7 0 11 117 13 124 3z"/>
<path d="M12596 3532 c-2 -4 -2 -15 -1 -24 2 -11 -3 -18 -11 -18 -9 0 -13 -4
-9 -10 9 -14 37 0 31 16 -4 10 3 14 20 14 14 0 23 4 20 9 -7 11 -45 21 -50 13z"/>
<path d="M12316 3501 c-3 -5 3 -11 14 -14 11 -3 18 -1 15 3 -3 5 1 11 7 13 7
3 3 6 -9 6 -12 1 -24 -3 -27 -8z"/>
<path d="M11565 2970 c-3 -5 -1 -10 4 -10 6 0 11 5 11 10 0 6 -2 10 -4 10 -3
0 -8 -4 -11 -10z"/>
<path d="M10510 2770 c-8 -5 -10 -10 -5 -10 6 0 17 5 25 10 8 5 11 10 5 10 -5
0 -17 -5 -25 -10z"/>
<path d="M10218 2733 c7 -3 16 -2 19 1 4 3 -2 6 -13 5 -11 0 -14 -3 -6 -6z"/>
<path d="M10240 2696 c0 -8 4 -18 10 -21 12 -8 50 12 50 27 0 6 -6 5 -17 -3
-13 -11 -17 -11 -20 -1 -6 17 -23 15 -23 -2z"/>
<path d="M10235 2610 c-3 -5 3 -10 14 -10 11 0 23 5 26 10 3 6 -3 10 -14 10
-11 0 -23 -4 -26 -10z"/>
<path d="M16430 1760 c0 -5 5 -10 11 -10 5 0 7 5 4 10 -3 6 -8 10 -11 10 -2 0
-4 -4 -4 -10z"/>
<path d="M8162 1355 c-51 -35 -51 -38 -2 -19 54 20 66 30 48 36 -7 3 -28 -5
-46 -17z"/>
<path d="M13807 4302 c-10 -2 -16 -9 -14 -15 5 -15 105 -9 137 9 23 13 21 14
-40 12 -36 -1 -73 -4 -83 -6z"/>
<path d="M13633 4279 c-18 -5 -33 -14 -33 -20 0 -6 6 -6 18 0 9 5 38 7 65 4
39 -5 47 -3 47 11 0 18 -43 21 -97 5z"/>
<path d="M13393 4255 c-99 -18 -129 -38 -48 -31 115 10 169 22 160 37 -7 11
-21 10 -112 -6z"/>
<path d="M5458 4223 c23 -2 59 -2 80 0 20 2 1 4 -43 4 -44 0 -61 -2 -37 -4z"/>
<path d="M5607 4223 c18 -2 50 -2 70 0 21 2 7 4 -32 4 -38 0 -55 -2 -38 -4z"/>
<path d="M13215 4210 c-8 -13 35 -13 55 0 11 7 7 10 -17 10 -17 0 -35 -4 -38
-10z"/>
<path d="M12880 4160 c-8 -5 -12 -11 -9 -14 7 -8 49 5 49 15 0 12 -21 11 -40
-1z"/>
<path d="M12688 4126 c-25 -6 -50 -15 -55 -20 -5 -5 5 -5 22 -1 17 5 45 9 64
9 19 1 36 7 39 14 4 14 -6 14 -70 -2z"/>
<path d="M12890 3971 c0 -5 9 -7 20 -4 11 3 20 7 20 9 0 2 -9 4 -20 4 -11 0
-20 -4 -20 -9z"/>
<path d="M11790 3905 l-35 -13 31 -1 c20 -1 34 5 38 14 3 8 4 15 3 14 -1 0
-18 -7 -37 -14z"/>
<path d="M11710 3880 c0 -5 5 -10 10 -10 6 0 10 5 10 10 0 6 -4 10 -10 10 -5
0 -10 -4 -10 -10z"/>
<path d="M11885 3849 c-4 -6 -4 -13 -1 -16 8 -8 36 5 36 17 0 13 -27 13 -35
-1z"/>
<path d="M12445 3839 c-10 -15 3 -25 16 -12 7 7 7 13 1 17 -6 3 -14 1 -17 -5z"/>
<path d="M11825 3820 c-3 -5 3 -10 15 -10 12 0 18 5 15 10 -3 6 -10 10 -15 10
-5 0 -12 -4 -15 -10z"/>
<path d="M12215 3790 c-38 -10 -83 -21 -98 -25 -31 -6 -32 -28 -2 -33 10 -2
15 0 11 6 -3 6 -2 13 4 17 5 3 10 1 10 -5 0 -6 9 -5 23 4 23 16 24 16 61 16
13 0 34 9 47 20 13 10 22 19 19 19 -3 -1 -36 -9 -75 -19z"/>
<path d="M12354 3775 c-18 -14 -17 -15 11 -9 37 8 57 24 29 24 -11 0 -29 -7
-40 -15z"/>
<path d="M11985 3730 l-20 -9 20 0 c11 0 27 4 35 9 13 9 13 10 0 9 -8 0 -24
-4 -35 -9z"/>
<path d="M11887 3714 c-12 -12 3 -22 24 -17 16 4 17 8 7 14 -16 10 -23 11 -31
3z"/>
<path d="M11978 3703 c-10 -2 -18 -8 -18 -13 0 -10 38 -1 46 11 5 9 1 10 -28
2z"/>
<path d="M11803 3690 c-13 -5 -23 -16 -23 -25 0 -16 -9 -18 -80 -19 -34 -1
-45 -5 -48 -18 -6 -30 58 -24 185 17 1 0 4 12 8 28 8 29 -2 33 -42 17z"/>
<path d="M10985 3663 c-19 -15 -19 -15 10 -8 37 8 57 25 30 25 -11 0 -29 -8
-40 -17z"/>
<path d="M11868 3673 c6 -2 18 -2 25 0 6 3 1 5 -13 5 -14 0 -19 -2 -12 -5z"/>
<path d="M11515 3590 c-3 -5 -1 -10 4 -10 6 0 11 5 11 10 0 6 -2 10 -4 10 -3
0 -8 -4 -11 -10z"/>
<path d="M10704 3554 c-17 -14 -17 -15 -1 -10 10 3 23 6 28 6 5 0 9 5 9 10 0
14 -13 12 -36 -6z"/>
<path d="M11015 3560 c3 -5 17 -10 31 -10 14 0 22 4 19 10 -3 6 -17 10 -31 10
-14 0 -22 -4 -19 -10z"/>
<path d="M10955 3539 c-16 -10 -34 -21 -40 -23 -5 -2 -7 -7 -3 -11 7 -7 88 39
88 50 0 9 -15 4 -45 -16z"/>
<path d="M10880 3445 c-11 -13 -10 -14 4 -9 9 3 16 10 16 15 0 13 -6 11 -20
-6z"/>
<path d="M7125 3430 c3 -5 8 -10 11 -10 2 0 4 5 4 10 0 6 -5 10 -11 10 -5 0
-7 -4 -4 -10z"/>
<path d="M7100 3400 c0 -5 5 -10 11 -10 5 0 7 5 4 10 -3 6 -8 10 -11 10 -2 0
-4 -4 -4 -10z"/>
<path d="M10795 3350 c-7 -12 2 -12 30 0 19 8 19 9 -2 9 -12 1 -25 -3 -28 -9z"/>
<path d="M10815 3330 c-3 -6 1 -7 9 -4 18 7 21 14 7 14 -6 0 -13 -4 -16 -10z"/>
<path d="M10278 3273 c7 -3 16 -2 19 1 4 3 -2 6 -13 5 -11 0 -14 -3 -6 -6z"/>
<path d="M10364 3145 c-16 -12 -16 -14 -3 -15 9 0 22 7 29 15 16 19 0 19 -26
0z"/>
<path d="M12470 3152 c0 -16 13 -20 35 -11 11 4 15 8 8 8 -6 1 -18 4 -27 7 -9
3 -16 1 -16 -4z"/>
<path d="M9769 3073 c-13 -15 -12 -15 9 -4 23 12 28 21 13 21 -5 0 -15 -7 -22
-17z"/>
<path d="M12818 3083 c7 -3 16 -2 19 1 4 3 -2 6 -13 5 -11 0 -14 -3 -6 -6z"/>
<path d="M9570 3069 c0 -5 5 -7 10 -4 6 3 10 8 10 11 0 2 -4 4 -10 4 -5 0 -10
-5 -10 -11z"/>
<path d="M12700 3054 c-170 -44 -230 -66 -230 -85 0 -15 296 75 320 97 8 8 12
14 10 13 -3 -1 -48 -12 -100 -25z"/>
<path d="M18630 2964 c-47 -24 -116 -53 -155 -66 -72 -22 -101 -38 -74 -38 25
0 122 36 191 70 124 63 138 71 138 75 0 9 -15 3 -100 -41z"/>
<path d="M9649 2960 l-24 -21 33 16 c31 15 41 25 23 25 -5 0 -19 -9 -32 -20z"/>
<path d="M18733 2960 c-13 -5 -23 -11 -23 -14 0 -7 40 6 46 15 6 10 6 10 -23
-1z"/>
<path d="M6995 2931 c-3 -6 3 -15 14 -21 16 -8 22 -6 31 10 9 18 8 20 -14 20
-14 0 -27 -4 -31 -9z"/>
<path d="M9273 2933 c-7 -2 -13 -8 -13 -13 0 -10 38 -1 46 11 6 10 -13 11 -33
2z"/>
<path d="M9542 2918 c-18 -11 -31 -22 -30 -24 6 -5 98 30 98 38 0 14 -34 7
-68 -14z"/>
<path d="M12274 2925 c-18 -14 -18 -14 6 -14 14 0 36 6 50 14 l25 14 -31 1
c-16 0 -39 -7 -50 -15z"/>
<path d="M18675 2930 c-3 -6 1 -7 9 -4 18 7 21 14 7 14 -6 0 -13 -4 -16 -10z"/>
<path d="M12228 2903 c7 -3 16 -2 19 1 4 3 -2 6 -13 5 -11 0 -14 -3 -6 -6z"/>
<path d="M11390 2875 c-11 -13 -8 -15 20 -15 21 0 30 4 28 13 -7 18 -33 20
-48 2z"/>
<path d="M11930 2881 c0 -5 8 -12 18 -14 9 -3 -9 -5 -42 -6 -45 -1 -57 -4 -53
-15 6 -16 -8 -23 -123 -60 -86 -27 -160 -63 -166 -81 -6 -14 -39 -29 -178 -80
-114 -42 -147 -57 -166 -80 -12 -14 -12 -18 0 -25 10 -6 22 -1 38 15 21 21 82
43 103 37 4 0 15 8 24 18 10 11 29 20 42 20 12 0 46 16 73 36 29 21 57 34 66
30 8 -3 37 5 64 19 27 14 64 27 82 29 18 2 34 8 36 15 6 18 22 13 22 -8 0 -26
-23 -42 -70 -48 -23 -3 -44 -12 -47 -19 -8 -21 -206 -90 -244 -85 -9 1 -19 -5
-22 -14 -6 -15 -106 -65 -199 -100 -51 -19 -86 -49 -69 -59 6 -4 18 2 26 12
17 19 75 19 75 0 0 -5 6 -6 13 -2 6 4 4 -2 -5 -13 -25 -28 -22 -33 13 -21 19
7 28 15 25 24 -3 9 9 21 33 34 22 11 41 24 43 29 1 5 67 33 146 63 126 49 142
53 142 37 0 -12 -7 -19 -19 -19 -11 0 -23 -5 -26 -11 -7 -11 55 -10 65 2 10
11 97 49 113 49 9 0 17 5 17 10 0 14 -11 13 -53 -5 -20 -8 -46 -15 -58 -15
-21 0 -21 1 -4 20 9 10 34 24 54 31 20 6 69 27 109 45 71 33 119 44 107 24 -3
-5 -14 -10 -24 -10 -10 0 -24 -7 -31 -15 -12 -14 -9 -15 25 -12 21 2 44 12 51
21 7 10 16 16 21 13 4 -2 22 2 38 10 21 10 23 13 8 9 -30 -6 -39 11 -19 33 22
24 20 31 -9 31 -35 0 -31 19 5 26 39 8 27 28 -14 21 -27 -5 -28 -5 -9 5 l22
10 -29 24 c-30 26 -40 29 -40 15z m20 -102 c0 -13 -147 -65 -157 -56 -2 3 9
13 26 22 17 8 31 18 31 21 0 2 -9 0 -20 -6 -11 -6 -20 -7 -20 -2 0 5 9 13 20
18 23 10 120 13 120 3z"/>
<path d="M18842 2838 c-52 -27 -92 -52 -89 -54 9 -9 167 73 196 102 13 12 -24
-4 -107 -48z"/>
<path d="M11470 2860 c0 -5 5 -10 11 -10 5 0 7 5 4 10 -3 6 -8 10 -11 10 -2 0
-4 -4 -4 -10z"/>
<path d="M9115 2850 c-3 -5 -1 -10 4 -10 6 0 11 5 11 10 0 6 -2 10 -4 10 -3 0
-8 -4 -11 -10z"/>
<path d="M11315 2848 c-30 -16 -31 -18 -15 -28 17 -10 74 16 65 30 -8 13 -25
12 -50 -2z"/>
<path d="M12655 2840 c-3 -5 -1 -10 4 -10 6 0 11 5 11 10 0 6 -2 10 -4 10 -3
0 -8 -4 -11 -10z"/>
<path d="M9036 2815 c-11 -8 -16 -15 -10 -15 5 0 18 7 28 15 11 8 16 15 10 15
-5 0 -18 -7 -28 -15z"/>
<path d="M18800 2764 c-25 -14 -36 -22 -25 -19 11 4 32 9 47 12 15 3 29 11 32
19 7 19 -2 17 -54 -12z"/>
<path d="M18698 2773 c-10 -2 -18 -9 -18 -14 0 -6 10 -5 23 2 37 20 36 23 -5
12z"/>
<path d="M12283 2751 c-44 -17 -64 -31 -45 -31 15 0 102 38 102 45 0 7 -10 5
-57 -14z"/>
<path d="M11265 2726 c-39 -19 -77 -41 -84 -50 -21 -25 5 -20 43 9 35 27 78
26 55 -1 -9 -11 -7 -14 9 -14 29 0 52 10 52 24 0 6 7 23 14 39 13 24 13 27 -2
27 -9 -1 -49 -16 -87 -34z"/>
<path d="M12592 2720 c-23 -11 -48 -17 -56 -14 -16 6 -41 -22 -27 -30 8 -6
100 13 148 29 15 5 6 35 -11 34 -6 0 -30 -9 -54 -19z"/>
<path d="M12885 2730 c3 -5 13 -10 21 -10 8 0 12 5 9 10 -3 6 -13 10 -21 10
-8 0 -12 -4 -9 -10z"/>
<path d="M18700 2720 c-9 -6 -10 -10 -3 -10 6 0 15 5 18 10 8 12 4 12 -15 0z"/>
<path d="M12165 2710 c-3 -6 1 -7 9 -4 18 7 21 14 7 14 -6 0 -13 -4 -16 -10z"/>
<path d="M8803 2703 c-7 -2 -13 -8 -13 -13 0 -10 38 -1 46 11 6 10 -13 11 -33
2z"/>
<path d="M12935 2700 c-3 -6 1 -7 9 -4 18 7 21 14 7 14 -6 0 -13 -4 -16 -10z"/>
<path d="M18675 2679 c-4 -6 -5 -12 -3 -14 7 -7 48 7 48 16 0 13 -37 11 -45
-2z"/>
<path d="M11010 2670 c-8 -5 -11 -12 -8 -16 4 -3 14 1 23 10 18 17 9 21 -15 6z"/>
<path d="M12416 2672 c-12 -20 10 -28 28 -11 19 19 19 19 -2 19 -11 0 -23 -4
-26 -8z"/>
<path d="M12680 2665 c-8 -9 -8 -15 -2 -15 12 0 26 19 19 26 -2 2 -10 -2 -17
-11z"/>
<path d="M11096 2663 c-3 -3 -3 -10 0 -14 7 -12 44 -12 44 0 0 10 -36 21 -44
14z"/>
<path d="M2850 2650 c-8 -5 -10 -10 -5 -10 6 0 17 5 25 10 8 5 11 10 5 10 -5
0 -17 -5 -25 -10z"/>
<path d="M18700 2650 c-8 -5 -10 -10 -5 -10 6 0 17 5 25 10 8 5 11 10 5 10 -5
0 -17 -5 -25 -10z"/>
<path d="M18910 2640 c-19 -11 -32 -19 -29 -20 11 0 79 30 79 35 0 9 -14 5
-50 -15z"/>
<path d="M11840 2639 c0 -5 5 -7 10 -4 6 3 10 8 10 11 0 2 -4 4 -10 4 -5 0
-10 -5 -10 -11z"/>
<path d="M12615 2640 c-3 -6 1 -7 9 -4 18 7 21 14 7 14 -6 0 -13 -4 -16 -10z"/>
<path d="M2715 2609 c-27 -10 -58 -19 -67 -19 -18 0 -24 -15 -10 -24 4 -2 35
7 67 22 68 29 70 30 64 36 -2 2 -26 -4 -54 -15z"/>
<path d="M10895 2617 c-11 -6 -31 -18 -43 -25 -13 -8 -22 -16 -19 -18 6 -7 84
32 92 46 8 13 -5 12 -30 -3z"/>
<path d="M12293 2615 c0 -8 4 -12 9 -9 4 3 8 9 8 15 0 5 -4 9 -8 9 -5 0 -9 -7
-9 -15z"/>
<path d="M12242 2608 c-16 -16 -15 -28 3 -28 8 0 15 9 15 20 0 23 -2 24 -18 8z"/>
<path d="M12153 2581 c-42 -21 -41 -31 2 -31 23 0 38 6 42 16 10 26 -10 33
-44 15z"/>
<path d="M10800 2555 c-8 -9 -8 -15 -2 -15 12 0 26 19 19 26 -2 2 -10 -2 -17
-11z"/>
<path d="M10844 2555 c-16 -12 -17 -16 -4 -24 10 -7 20 -5 32 6 35 31 10 47
-28 18z"/>
<path d="M12030 2550 c0 -5 4 -10 9 -10 6 0 13 5 16 10 3 6 -1 10 -9 10 -9 0
-16 -4 -16 -10z"/>
<path d="M18905 2540 c-3 -6 1 -7 9 -4 18 7 21 14 7 14 -6 0 -13 -4 -16 -10z"/>
<path d="M10655 2523 c-39 -21 -16 -29 24 -8 17 8 31 18 31 20 0 10 -26 4 -55
-12z"/>
<path d="M10755 2520 c3 -5 11 -10 16 -10 6 0 7 5 4 10 -3 6 -11 10 -16 10 -6
0 -7 -4 -4 -10z"/>
<path d="M11143 2515 c-21 -23 -16 -37 7 -25 11 6 20 17 20 25 0 19 -11 19
-27 0z"/>
<path d="M12040 2519 c0 -5 5 -7 10 -4 6 3 10 8 10 11 0 2 -4 4 -10 4 -5 0
-10 -5 -10 -11z"/>
<path d="M10710 2500 c-6 -11 -7 -20 -2 -20 10 0 32 21 32 32 0 16 -19 8 -30
-12z"/>
<path d="M11565 2510 c-3 -5 -1 -10 4 -10 6 0 11 5 11 10 0 6 -2 10 -4 10 -3
0 -8 -4 -11 -10z"/>
<path d="M11840 2509 c0 -5 5 -7 10 -4 6 3 10 8 10 11 0 2 -4 4 -10 4 -5 0
-10 -5 -10 -11z"/>
<path d="M274 2494 c-18 -14 -18 -15 4 -4 12 6 22 13 22 15 0 8 -5 6 -26 -11z"/>
<path d="M11863 2488 c-18 -6 -33 -17 -33 -24 0 -17 12 -18 27 -3 5 5 24 11
41 11 26 1 28 3 17 14 -7 8 -15 14 -17 13 -2 -1 -18 -6 -35 -11z"/>
<path d="M11990 2489 c0 -5 5 -7 10 -4 6 3 10 8 10 11 0 2 -4 4 -10 4 -5 0
-10 -5 -10 -11z"/>
<path d="M2380 2480 c0 -5 6 -10 14 -10 8 0 18 5 21 10 3 6 -3 10 -14 10 -12
0 -21 -4 -21 -10z"/>
<path d="M11060 2470 c-6 -11 -7 -20 -2 -20 6 0 12 9 15 20 3 11 3 20 1 20 -2
0 -8 -9 -14 -20z"/>
<path d="M11435 2470 c-3 -5 -1 -10 4 -10 6 0 11 5 11 10 0 6 -2 10 -4 10 -3
0 -8 -4 -11 -10z"/>
<path d="M10635 2430 c-7 -12 2 -12 30 0 19 8 19 9 -2 9 -12 1 -25 -3 -28 -9z"/>
<path d="M11325 2430 c-3 -5 1 -10 9 -10 9 0 16 5 16 10 0 6 -4 10 -9 10 -6 0
-13 -4 -16 -10z"/>
<path d="M10283 2413 c-17 -6 -17 -23 0 -23 8 0 14 7 14 15 0 8 -1 15 -1 14
-1 0 -7 -3 -13 -6z"/>
<path d="M11059 2401 c-13 -11 -21 -22 -17 -26 11 -12 58 4 58 20 0 23 -17 26
-41 6z"/>
<path d="M11620 2399 l-35 -20 35 6 c36 6 79 35 50 35 -8 -1 -31 -10 -50 -21z"/>
<path d="M1259 2371 c-24 -20 -24 -20 -2 -14 12 3 28 11 34 19 17 21 -5 17
-32 -5z"/>
<path d="M11258 2363 c7 -3 16 -2 19 1 4 3 -2 6 -13 5 -11 0 -14 -3 -6 -6z"/>
<path d="M11550 2360 c0 -5 5 -10 11 -10 5 0 7 5 4 10 -3 6 -8 10 -11 10 -2 0
-4 -4 -4 -10z"/>
<path d="M10771 2329 c-18 -16 -31 -32 -28 -36 5 -4 87 55 87 64 0 12 -31 -2
-59 -28z"/>
<path d="M10190 2340 c0 -5 5 -10 10 -10 6 0 10 5 10 10 0 6 -4 10 -10 10 -5
0 -10 -4 -10 -10z"/>
<path d="M10635 2340 c-3 -5 -1 -10 4 -10 6 0 11 5 11 10 0 6 -2 10 -4 10 -3
0 -8 -4 -11 -10z"/>
<path d="M11396 2304 c-33 -13 -62 -28 -65 -32 -4 -5 -15 -12 -25 -15 -10 -4
-17 -10 -14 -13 10 -10 133 39 158 62 31 30 21 30 -54 -2z"/>
<path d="M10759 2283 c-42 -19 -58 -32 -67 -56 -6 -17 -10 -32 -9 -34 5 -4
120 55 146 75 23 19 22 43 -2 41 -7 0 -37 -12 -68 -26z"/>
<path d="M1710 2290 c-9 -6 -10 -10 -3 -10 6 0 15 5 18 10 8 12 4 12 -15 0z"/>
<path d="M10505 2285 c-16 -8 -43 -26 -60 -40 l-30 -27 32 21 c17 12 51 30 75
40 23 11 36 20 28 19 -8 0 -28 -6 -45 -13z"/>
<path d="M7940 2275 c-11 -13 -10 -14 4 -9 9 3 16 10 16 15 0 13 -6 11 -20 -6z"/>
<path d="M10385 2280 c-3 -5 -2 -10 4 -10 5 0 13 5 16 10 3 6 2 10 -4 10 -5 0
-13 -4 -16 -10z"/>
<path d="M10545 2235 c-58 -32 -75 -46 -62 -50 16 -7 58 17 105 58 12 12 22
15 22 9 0 -17 37 -15 43 2 6 16 -1 26 -17 25 -6 0 -47 -20 -91 -44z"/>
<path d="M715 2248 c-49 -25 -76 -48 -70 -58 3 -5 -19 -20 -48 -35 -62 -32
-101 -64 -52 -44 17 7 42 21 57 31 14 10 29 18 33 18 4 0 18 11 31 25 13 14
30 25 39 25 8 0 15 4 15 9 0 5 9 11 20 14 11 3 20 12 20 21 0 19 4 20 -45 -6z"/>
<path d="M7827 2234 c-16 -9 -26 -18 -23 -21 3 -3 11 -1 18 5 7 5 29 15 48 20
29 8 31 10 10 11 -14 0 -38 -7 -53 -15z"/>
<path d="M10618 2213 c-16 -15 -178 -83 -201 -83 -5 0 -3 8 6 18 22 24 21 32
-1 32 -10 0 -29 -11 -42 -25 -18 -19 -20 -25 -8 -25 13 0 35 -30 26 -34 -2 -1
-20 -10 -42 -19 -21 -10 -37 -20 -34 -22 8 -8 167 50 168 61 0 19 27 37 32 22
6 -16 113 36 122 59 10 24 -8 35 -26 16z"/>
<path d="M10360 2205 c-7 -9 -11 -18 -8 -20 3 -3 11 1 18 10 7 9 11 18 8 20
-3 3 -11 -1 -18 -10z"/>
<path d="M10300 2169 c0 -5 5 -7 10 -4 6 3 10 8 10 11 0 2 -4 4 -10 4 -5 0
-10 -5 -10 -11z"/>
<path d="M1191 2150 c-13 -11 -30 -20 -38 -20 -8 0 -35 -14 -59 -32 -46 -33
-57 -46 -25 -29 10 6 22 7 25 3 4 -4 12 1 17 10 5 9 34 29 64 44 56 27 77 44
53 44 -7 -1 -24 -10 -37 -20z"/>
<path d="M9773 2116 c-35 -17 -63 -36 -63 -43 0 -9 14 -6 48 11 102 53 115 81
15 32z"/>
<path d="M11040 2130 c0 -5 5 -10 10 -10 6 0 10 5 10 10 0 6 -4 10 -10 10 -5
0 -10 -4 -10 -10z"/>
<path d="M399 2073 c-13 -16 -12 -17 4 -4 9 7 17 15 17 17 0 8 -8 3 -21 -13z"/>
<path d="M974 2019 c-19 -22 -19 -22 6 -14 32 10 36 13 24 25 -7 7 -17 3 -30
-11z"/>
<path d="M10084 2015 c-10 -8 -14 -15 -8 -15 5 0 19 7 30 15 10 8 14 15 8 15
-5 0 -19 -7 -30 -15z"/>
<path d="M10118 1992 c-36 -20 -46 -31 -42 -44 4 -12 0 -18 -11 -18 -13 0 -16
8 -13 32 4 41 -12 45 -50 13 -16 -14 -60 -39 -97 -56 -80 -38 -81 -50 0 -14
32 14 60 25 62 25 15 0 -28 -36 -73 -62 -84 -47 -83 -60 3 -27 86 33 301 138
309 151 3 4 -3 5 -12 1 -13 -5 -16 -3 -11 10 9 24 -10 21 -65 -11z m-100 -57
c-6 -14 -17 -25 -25 -25 -18 0 -17 15 3 34 23 24 35 19 22 -9z"/>
<path d="M18763 1923 c9 -2 25 -2 35 0 9 3 1 5 -18 5 -19 0 -27 -2 -17 -5z"/>
<path d="M18585 1890 c-8 -13 15 -13 35 0 12 8 11 10 -7 10 -12 0 -25 -4 -28
-10z"/>
<path d="M18625 1875 c-27 -13 -44 -24 -37 -24 13 -1 102 38 102 45 0 8 -15 3
-65 -21z"/>
<path d="M9700 1829 c-55 -28 -70 -40 -57 -45 29 -11 19 -26 -13 -19 -19 4
-30 3 -30 -4 0 -6 8 -11 18 -11 15 -1 15 -2 -2 -15 -11 -8 -29 -15 -40 -15
-18 0 -76 -48 -76 -63 0 -6 128 38 161 55 42 23 149 91 149 95 0 2 -10 1 -22
-3 -126 -41 -141 -35 -53 21 50 33 67 48 48 43 -5 0 -42 -18 -83 -39z"/>
<path d="M18525 1840 c-8 -13 5 -13 25 0 13 8 13 10 -2 10 -9 0 -20 -4 -23
-10z"/>
<path d="M15875 1720 c3 -5 11 -10 16 -10 6 0 7 5 4 10 -3 6 -11 10 -16 10 -6
0 -7 -4 -4 -10z"/>
<path d="M9452 1678 c-7 -7 -12 -15 -12 -19 0 -11 38 2 51 17 9 11 8 14 -8 14
-10 0 -24 -5 -31 -12z"/>
<path d="M8995 1670 c-3 -6 1 -7 9 -4 18 7 21 14 7 14 -6 0 -13 -4 -16 -10z"/>
<path d="M9937 1643 c-16 -8 -26 -17 -24 -20 6 -5 67 24 67 32 0 8 -13 4 -43
-12z"/>
<path d="M9439 1629 c-23 -19 -23 -20 -2 -10 12 6 25 16 28 21 10 16 -1 12
-26 -11z"/>
<path d="M2951 1603 c-7 -14 -10 -28 -7 -31 10 -9 33 7 39 27 7 30 -19 33 -32
4z"/>
<path d="M9620 1528 c-47 -32 -60 -46 -60 -63 1 -5 5 -2 11 8 7 12 17 15 35
11 28 -7 54 10 54 37 0 11 7 19 16 19 8 0 12 -4 9 -10 -7 -12 5 -13 23 -2 9 6
5 12 -13 20 -31 15 -22 17 -75 -20z"/>
<path d="M2936 1522 c-3 -15 -8 -38 -12 -52 l-6 -25 21 24 c21 24 28 65 12 75
-5 3 -11 -7 -15 -22z"/>
<path d="M9510 1439 c0 -5 5 -7 10 -4 6 3 10 8 10 11 0 2 -4 4 -10 4 -5 0 -10
-5 -10 -11z"/>
<path d="M9334 1419 c-19 -22 -19 -22 3 -10 24 12 39 31 25 31 -5 0 -17 -10
-28 -21z"/>
<path d="M9125 1329 c-16 -10 -61 -31 -100 -45 -79 -30 -100 -44 -67 -44 46 0
14 -37 -60 -70 -26 -11 -50 -25 -53 -30 -7 -11 96 32 130 54 11 7 44 19 73 26
28 8 52 18 52 22 0 5 4 6 10 3 13 -8 71 26 64 37 -3 5 -29 6 -57 3 -48 -6 -51
-5 -33 9 11 9 25 16 31 16 7 0 20 9 30 20 22 24 19 24 -20 -1z m-50 -58 c7
-12 -2 -17 -45 -25 l-35 -7 24 21 c25 21 46 26 56 11z"/>
<path d="M9205 1300 c-3 -5 -2 -10 4 -10 5 0 13 5 16 10 3 6 2 10 -4 10 -5 0
-13 -4 -16 -10z"/>
<path d="M3187 815 c19 -40 29 -44 39 -13 7 22 -16 48 -43 48 -10 0 -9 -8 4
-35z"/>
</g>
</svg>
